%
T1C0.0236F200S100
X-025588Y022728
X-025220Y016400
X-024544Y018232
X-024112Y017400
X-023945Y022119
X-023840Y023180
X-022972Y023108
X-022964Y017564
X-022576Y017196
X-022180Y016736
X-021760Y016376
X-021520Y016836
X-021024Y016420
X-020964Y022728
X-020440Y015720
X-019900Y022488
X-019300Y021436
T2C0.0315F200S100
X-025928Y013604
X-025928Y014391
X-025141Y013604
X-025141Y014391
X-024353Y013604
X-024353Y014391
X-023566Y013604
X-023566Y014391
X-022778Y013604
X-022778Y014391
X-021991Y013604
X-021991Y014391
X-021204Y013604
X-021204Y014391
X-020416Y013604
X-020416Y014391
X-019629Y013604
X-019629Y014391
X-018841Y013604
X-018841Y014391
M30
