*
G04 Mass Parameters ***
*
G04 Image ***
*
%INC:\CAINPCB\ECBOT\V5\TCM8240_CAM\TMC8240-5.DRD*%
%ICAS*%
%MOIN*%
%IPPOS*%
%ASAXBY*%
G74*%FSLAN2X34Y34*%
*
G04 Aperture Definitions ***
*
%ADD10R,0.0400X0.0500*%
%ADD11R,0.0500X0.0500*%
%ADD12R,0.0500X0.0400*%
%ADD13R,0.0394X0.0590*%
%ADD14R,0.0236X0.0551*%
%ADD15R,0.0551X0.0236*%
%ADD16C,0.0472*%
%ADD17R,0.0390X0.0272*%
%ADD18C,0.0394*%
%ADD19C,0.0157*%
%ADD20C,0.0100*%
%ADD21C,0.0079*%
%ADD22C,0.0118*%
%ADD23C,0.0080*%
%ADD24R,0.0500X0.0400*%
%ADD25C,0.0472*%
%ADD26C,0.0394*%
%ADD27R,0.0400X0.0500*%
%ADD28R,0.0500X0.0500*%
%ADD29R,0.0394X0.0590*%
%ADD30R,0.0315X0.0630*%
%ADD31R,0.0630X0.0315*%
%ADD32C,0.0551*%
%ADD33C,0.0010*%
%ADD34C,0.0060*%
%ADD35C,0.0020*%
%ADD36C,0.0059*%
*
G04 Plot Data ***
*
G54D19*
G01X-0026408Y0024104D02*
X-0018396D01*
Y0012512D01*
X-0026408D01*
Y0024104D01*
G54D20*
G01X0024208Y-0008333D02*
X0024708Y-0007333D01*
X0024042D01*
X0023092Y-0008167D02*
X0023258Y-0008333D01*
X0023592D01*
X0023758Y-0008167D01*
Y-0008000D01*
X0023425Y-0007667D01*
X0023758Y-0007333D01*
X0023092D01*
X0012312Y-0008333D02*
X0011729D01*
Y-0007333D01*
X0011446Y-0008000D02*
X0010779D01*
X0011446Y-0008333D02*
Y-0007833D01*
X0011196Y-0007333D01*
X0011029D01*
X0010779Y-0007833D01*
Y-0008333D01*
X0010162D02*
Y-0007333D01*
X0010496D02*
X0009829D01*
X0008962Y-0008333D02*
X0008879Y-0008167D01*
Y-0007500D01*
X0008962Y-0007333D01*
X0009462D01*
X0009546Y-0007500D01*
Y-0008167D01*
X0009462Y-0008333D01*
X0008962D01*
X0008262D02*
Y-0007333D01*
X0008596D02*
X0007929D01*
X0024430Y-0006472D02*
X0024319Y-0006361D01*
X0024264Y-0006250D01*
Y-0006028D01*
X0024319Y-0005917D01*
X0024430Y-0005806D01*
X0024542D01*
X0024653Y-0005917D01*
X0024708Y-0006028D01*
Y-0006250D01*
X0024653Y-0006361D01*
X0024542Y-0006472D01*
X0024430D01*
X0024008D02*
X0023564D01*
X0024008Y-0006028D01*
Y-0005917D01*
X0023953Y-0005806D01*
X0023619D01*
X0023564Y-0005917D01*
X0010869Y-0006472D02*
Y-0006139D01*
X0011092Y-0006472D02*
Y-0006139D01*
X0011036Y-0006028D01*
X0010925D01*
X0010869Y-0006139D01*
X0010814Y-0006028D01*
X0010703D01*
X0010647Y-0006139D01*
Y-0006472D01*
X0010169D02*
Y-0006139D01*
X0010392Y-0006472D02*
Y-0006139D01*
X0010336Y-0006028D01*
X0010225D01*
X0010169Y-0006139D01*
X0010114Y-0006028D01*
X0010003D01*
X0009947Y-0006139D01*
Y-0006472D01*
X0008464D02*
X0008353Y-0006361D01*
X0008297Y-0006250D01*
Y-0006028D01*
X0008353Y-0005917D01*
X0008464Y-0005806D01*
X0008575D01*
X0008686Y-0005917D01*
X0008742Y-0006028D01*
Y-0006250D01*
X0008686Y-0006361D01*
X0008575Y-0006472D01*
X0008464D01*
X0007764D02*
X0007653Y-0006361D01*
X0007597Y-0006250D01*
Y-0006028D01*
X0007653Y-0005917D01*
X0007764Y-0005806D01*
X0007875D01*
X0007986Y-0005917D01*
X0008042Y-0006028D01*
Y-0006250D01*
X0007986Y-0006361D01*
X0007875Y-0006472D01*
X0007764D01*
X0007286Y-0006139D02*
X0007342Y-0006028D01*
Y-0005917D01*
X0007286Y-0005806D01*
X0006953D01*
X0006897Y-0005917D01*
Y-0006028D01*
X0006953Y-0006139D01*
X0007286D01*
X0007342Y-0006250D01*
Y-0006361D01*
X0007286Y-0006472D01*
X0006953D01*
X0006897Y-0006361D01*
Y-0006250D01*
X0006953Y-0006139D01*
X0006531Y-0006472D02*
X0006642D01*
Y-0006361D01*
X0006531D01*
Y-0006472D01*
X0005886D02*
X0005775Y-0006361D01*
X0005719Y-0006250D01*
Y-0006028D01*
X0005775Y-0005917D01*
X0005886Y-0005806D01*
X0005997D01*
X0006108Y-0005917D01*
X0006164Y-0006028D01*
Y-0006250D01*
X0006108Y-0006361D01*
X0005997Y-0006472D01*
X0005886D01*
X0024375Y-0004972D02*
X0024708Y-0004306D01*
X0024264D01*
X0024008Y-0004972D02*
X0023786D01*
X0023897D02*
Y-0004306D01*
X0023786Y-0004417D01*
X0010869Y-0004972D02*
Y-0004639D01*
X0011092Y-0004972D02*
Y-0004639D01*
X0011036Y-0004528D01*
X0010925D01*
X0010869Y-0004639D01*
X0010814Y-0004528D01*
X0010703D01*
X0010647Y-0004639D01*
Y-0004972D01*
X0010169D02*
Y-0004639D01*
X0010392Y-0004972D02*
Y-0004639D01*
X0010336Y-0004528D01*
X0010225D01*
X0010169Y-0004639D01*
X0010114Y-0004528D01*
X0010003D01*
X0009947Y-0004639D01*
Y-0004972D01*
X0008686Y-0004639D02*
X0008353D01*
X0008297Y-0004528D01*
Y-0004417D01*
X0008353Y-0004306D01*
X0008686D01*
X0008742Y-0004417D01*
Y-0004528D01*
X0008519Y-0004972D01*
X0007986Y-0004639D02*
X0007653D01*
X0007597Y-0004528D01*
Y-0004417D01*
X0007653Y-0004306D01*
X0007986D01*
X0008042Y-0004417D01*
Y-0004528D01*
X0007819Y-0004972D01*
X0006897Y-0004861D02*
X0006953Y-0004972D01*
X0007286D01*
X0007342Y-0004861D01*
Y-0004639D01*
X0007230Y-0004528D01*
X0006897D01*
Y-0004306D01*
X0007342D01*
X0006531Y-0004972D02*
X0006642D01*
Y-0004861D01*
X0006531D01*
Y-0004972D01*
X0005886D02*
X0005775Y-0004861D01*
X0005719Y-0004750D01*
Y-0004528D01*
X0005775Y-0004417D01*
X0005886Y-0004306D01*
X0005997D01*
X0006108Y-0004417D01*
X0006164Y-0004528D01*
Y-0004750D01*
X0006108Y-0004861D01*
X0005997Y-0004972D01*
X0005886D01*
X0033112Y-0002833D02*
X0032612D01*
X0033279Y-0003333D02*
X0032612D01*
Y-0002333D01*
X0033279D01*
X0031996Y-0003333D02*
Y-0002333D01*
X0032329D02*
X0031662D01*
X0030796Y-0003333D02*
X0030712Y-0003167D01*
Y-0002500D01*
X0030796Y-0002333D01*
X0031296D01*
X0031379Y-0002500D01*
Y-0003167D01*
X0031296Y-0003333D01*
X0030796D01*
X0030429Y-0002333D02*
Y-0003333D01*
X0030262Y-0003167D01*
X0029929Y-0002500D01*
X0029762Y-0002333D01*
Y-0003333D01*
X0023925D02*
Y-0002833D01*
X0024258Y-0002333D02*
X0024008Y-0002833D01*
X0023842D01*
X0023592Y-0002333D01*
X0022975Y-0003333D02*
Y-0002333D01*
X0023308D02*
X0022642D01*
X0022025Y-0003000D02*
X0022358Y-0003333D01*
X0021692Y-0003167D02*
X0021775Y-0003333D01*
X0022108D01*
X0022192Y-0003167D01*
X0022358Y-0003000D01*
Y-0002500D01*
X0022275Y-0002333D01*
X0021775D01*
X0021692Y-0002500D01*
Y-0003167D01*
X0017408Y-0003333D02*
X0016825D01*
Y-0002333D01*
X0015958Y-0003333D02*
X0015875Y-0003167D01*
Y-0002500D01*
X0015958Y-0002333D01*
X0016458D01*
X0016542Y-0002500D01*
Y-0003167D01*
X0016458Y-0003333D01*
X0015958D01*
X0015258D02*
Y-0002333D01*
X0015592D02*
X0014925D01*
X0009587Y-0003333D02*
Y-0002333D01*
X0009421Y-0002500D01*
X0009254Y-0002833D01*
X0009087Y-0002500D01*
X0008921Y-0002333D01*
Y-0003333D01*
X0008637Y-0003000D02*
X0007971D01*
X0008637Y-0003333D02*
Y-0002833D01*
X0008387Y-0002333D01*
X0008221D01*
X0007971Y-0002833D01*
Y-0003333D01*
X0007687D02*
X0007354D01*
X0007521D02*
Y-0002333D01*
X0007687D02*
X0007354D01*
X0006321Y-0003333D02*
Y-0002333D01*
X0006237Y-0003333D02*
X0006737D01*
X0006904Y-0003000D01*
Y-0002667D01*
X0006737Y-0002333D01*
X0006237D01*
X0003150Y-0003333D02*
Y-0002333D01*
X0002983Y-0002500D01*
X0002817Y-0002833D01*
X0002650Y-0002500D01*
X0002483Y-0002333D01*
Y-0003333D01*
X0001867D02*
Y-0002833D01*
X0002200Y-0002333D02*
X0001950Y-0002833D01*
X0001783D01*
X0001533Y-0002333D01*
X0001250Y-0002500D02*
X0001167Y-0002333D01*
X0000667D01*
X0000583Y-0002500D01*
Y-0002667D01*
X0000667Y-0002833D01*
X0001167D01*
X0001250Y-0003000D01*
Y-0003167D01*
X0001167Y-0003333D01*
X0000667D01*
X0000583Y-0003167D01*
X0023437Y-0001333D02*
Y-0000333D01*
X0023771D02*
X0023104D01*
X0022571Y-0000833D02*
X0022821Y-0001333D01*
X0022154Y-0000833D02*
X0022654D01*
X0022821Y-0000667D01*
Y-0000500D01*
X0022654Y-0000333D01*
X0022154D01*
Y-0001333D01*
X0021871Y-0001000D02*
X0021204D01*
X0021871Y-0001333D02*
Y-0000833D01*
X0021621Y-0000333D01*
X0021454D01*
X0021204Y-0000833D01*
Y-0001333D01*
X0020921Y-0000833D02*
X0020254D01*
X0020921Y-0001333D02*
Y-0000333D01*
X0020254Y-0001333D02*
Y-0000333D01*
X0019971Y-0001167D02*
X0019887Y-0001333D01*
X0019387D01*
X0019304Y-0001167D01*
Y-0000500D01*
X0019387Y-0000333D01*
X0019887D01*
X0019971Y-0000500D01*
X0017696Y-0001333D02*
X0017112D01*
Y-0000333D01*
X0016829Y-0001333D02*
X0016246D01*
Y-0000333D01*
X0015962Y-0001333D02*
X0015629D01*
X0015796D02*
Y-0000333D01*
X0015962D02*
X0015629D01*
X0014929Y-0000833D02*
X0015179Y-0001333D01*
X0014512Y-0000833D02*
X0015012D01*
X0015179Y-0000667D01*
Y-0000500D01*
X0015012Y-0000333D01*
X0014512D01*
Y-0001333D01*
X0013646D02*
Y-0000333D01*
X0013562Y-0001333D02*
X0014062D01*
X0014229Y-0001000D01*
Y-0000667D01*
X0014062Y-0000333D01*
X0013562D01*
X0002075Y-0006000D02*
X0001575Y-0006500D01*
X0002075D02*
X0001575Y-0006000D01*
X0002075Y-0004750D02*
X0001575D01*
X0001825Y-0004500D02*
Y-0005000D01*
X0037300Y-0009050D02*
X-0000050D01*
X0037250Y-0009000D02*
X0000000D01*
X0037250Y-0007000D02*
X0000000D01*
X0037250Y-0005500D02*
X0000000D01*
X0037250Y-0004000D02*
X0000000D01*
X0037250Y-0003950D02*
X0000000D01*
X0037250Y-0002000D02*
X0000000D01*
X0037250Y-0001950D02*
X0000000D01*
X0037250Y0000000D02*
X0000000D01*
X0037300Y0000050D02*
X-0000050D01*
X0037300Y-0009000D02*
Y0000000D01*
X0037250Y-0009000D02*
Y0000000D01*
X0025708Y-0009000D02*
Y-0002000D01*
X0020158Y-0009000D02*
Y-0002000D01*
X0012092Y-0007000D02*
Y-0002000D01*
X0003700Y-0007000D02*
Y-0002000D01*
X0003650Y-0007000D02*
Y-0002000D01*
X-0000050Y-0009000D02*
Y0000000D01*
X0000000Y-0009000D02*
Y0000000D01*
X-0019650Y0022488D02*
X-0020150D01*
X-0019900Y0022738D02*
Y0022238D01*
X-0023590Y0023180D02*
X-0024090D01*
X-0023840Y0023430D02*
Y0022930D01*
X-0019050Y0021436D02*
X-0019550D01*
X-0019300Y0021686D02*
Y0021186D01*
X-0020714Y0022728D02*
X-0021214D01*
X-0020964Y0022978D02*
Y0022478D01*
X-0025338Y0022728D02*
X-0025838D01*
X-0025588Y0022978D02*
Y0022478D01*
X-0023862Y0017400D02*
X-0024362D01*
X-0024112Y0017650D02*
Y0017150D01*
X-0022722Y0023108D02*
X-0023222D01*
X-0022972Y0023358D02*
Y0022858D01*
X-0024294Y0018232D02*
X-0024794D01*
X-0024544Y0018482D02*
Y0017982D01*
X-0023695Y0022119D02*
X-0024195D01*
X-0023945Y0022369D02*
Y0021869D01*
X-0022714Y0017564D02*
X-0023214D01*
X-0022964Y0017814D02*
Y0017314D01*
X-0022326Y0017196D02*
X-0022826D01*
X-0022576Y0017446D02*
Y0016946D01*
X-0021930Y0016736D02*
X-0022430D01*
X-0022180Y0016986D02*
Y0016486D01*
X-0021270Y0016836D02*
X-0021770D01*
X-0021520Y0017086D02*
Y0016586D01*
X-0020190Y0015720D02*
X-0020690D01*
X-0020440Y0015970D02*
Y0015470D01*
X-0020774Y0016420D02*
X-0021274D01*
X-0021024Y0016670D02*
Y0016170D01*
X-0021510Y0016376D02*
X-0022010D01*
X-0021760Y0016626D02*
Y0016126D01*
X-0024970Y0016400D02*
X-0025470D01*
X-0025220Y0016650D02*
Y0016150D01*
X-0025678Y0013854D02*
X-0026178Y0013354D01*
X-0025678D02*
X-0026178Y0013854D01*
X-0025678Y0014641D02*
X-0026178Y0014141D01*
X-0025678D02*
X-0026178Y0014641D01*
X-0024891Y0013854D02*
X-0025391Y0013354D01*
X-0024891D02*
X-0025391Y0013854D01*
X-0024891Y0014641D02*
X-0025391Y0014141D01*
X-0024891D02*
X-0025391Y0014641D01*
X-0024103Y0013854D02*
X-0024603Y0013354D01*
X-0024103D02*
X-0024603Y0013854D01*
X-0024103Y0014641D02*
X-0024603Y0014141D01*
X-0024103D02*
X-0024603Y0014641D01*
X-0023316Y0013854D02*
X-0023816Y0013354D01*
X-0023316D02*
X-0023816Y0013854D01*
X-0023316Y0014641D02*
X-0023816Y0014141D01*
X-0023316D02*
X-0023816Y0014641D01*
X-0022528Y0013854D02*
X-0023028Y0013354D01*
X-0022528D02*
X-0023028Y0013854D01*
X-0022528Y0014641D02*
X-0023028Y0014141D01*
X-0022528D02*
X-0023028Y0014641D01*
X-0021741Y0013854D02*
X-0022241Y0013354D01*
X-0021741D02*
X-0022241Y0013854D01*
X-0021741Y0014641D02*
X-0022241Y0014141D01*
X-0021741D02*
X-0022241Y0014641D01*
X-0020954Y0013854D02*
X-0021454Y0013354D01*
X-0020954D02*
X-0021454Y0013854D01*
X-0020954Y0014641D02*
X-0021454Y0014141D01*
X-0020954D02*
X-0021454Y0014641D01*
X-0020166Y0013854D02*
X-0020666Y0013354D01*
X-0020166D02*
X-0020666Y0013854D01*
X-0020166Y0014641D02*
X-0020666Y0014141D01*
X-0020166D02*
X-0020666Y0014641D01*
X-0019379Y0013854D02*
X-0019879Y0013354D01*
X-0019379D02*
X-0019879Y0013854D01*
X-0019379Y0014641D02*
X-0019879Y0014141D01*
X-0019379D02*
X-0019879Y0014641D01*
X-0018591Y0013854D02*
X-0019091Y0013354D01*
X-0018591D02*
X-0019091Y0013854D01*
X-0018591Y0014641D02*
X-0019091Y0014141D01*
X-0018591D02*
X-0019091Y0014641D01*
M02*
