*
G04 Mass Parameters ***
*
G04 Image ***
*
%INC:\CAINPCB\ECBOT\V5\TCM8240_CAM\TMC8240-5.BOT*%
%ICAS*%
%MOIN*%
%IPPOS*%
%ASAXBY*%
G74*%FSLAN2X34Y34*%
*
G04 Aperture Definitions ***
*
%ADD10R,0.0400X0.0500*%
%ADD11R,0.0500X0.0500*%
%ADD12R,0.0500X0.0400*%
%ADD13R,0.0394X0.0590*%
%ADD14R,0.0236X0.0551*%
%ADD15R,0.0551X0.0236*%
%ADD16C,0.0472*%
%ADD17R,0.0390X0.0272*%
%ADD18C,0.0394*%
%ADD19C,0.0157*%
%ADD20C,0.0100*%
%ADD21C,0.0079*%
%ADD22C,0.0118*%
%ADD23C,0.0080*%
%ADD24R,0.0500X0.0400*%
%ADD25C,0.0472*%
%ADD26C,0.0394*%
*
G04 Plot Data ***
*
G54D21*
G01X-0025141Y0013604D02*
X-0025524Y0013987D01*
Y0015896D01*
X-0026096Y0016468D01*
Y0022768D01*
X-0025112Y0023752D01*
X-0021988D01*
X-0020964Y0022728D01*
X-0024556Y0017452D02*
X-0024164D01*
X-0024112Y0017400D01*
X-0023566Y0013604D02*
X-0023976Y0014014D01*
Y0015692D01*
X-0024684Y0016400D01*
X-0025220D01*
X-0025588Y0022728D02*
X-0025584Y0022724D01*
Y0022100D01*
Y0019272D01*
X-0019300Y0021436D02*
X-0024920D01*
X-0025588Y0022104D01*
Y0022728D01*
X-0024544Y0018232D02*
X-0024556Y0018220D01*
Y0018012D01*
X-0021991Y0013604D02*
X-0021604Y0013991D01*
Y0015800D01*
X-0021760Y0015956D01*
Y0016376D01*
X-0022576Y0017196D02*
X-0022568Y0017204D01*
X-0021296D01*
X-0020108Y0016016D01*
Y0015212D01*
X-0020416Y0014904D01*
Y0014391D01*
Y0013604D02*
X-0020412D01*
X-0020020Y0013996D01*
Y0015024D01*
X-0019924Y0015120D01*
Y0016116D01*
X-0021372Y0017564D01*
X-0022964D01*
X-0021204Y0014391D02*
X-0021207D01*
X-0021364Y0014548D01*
Y0016680D01*
X-0021520Y0016836D01*
X-0022180Y0016736D02*
X-0022388Y0016528D01*
Y0013408D01*
X-0022180Y0013200D01*
X-0021604D01*
X-0021204Y0013600D01*
Y0013604D01*
X-0022972Y0023108D02*
X-0023945Y0022135D01*
Y0022119D01*
X-0023840Y0023180D02*
X-0023476Y0023544D01*
X-0022392D01*
X-0021180Y0022332D01*
X-0020044D01*
X-0019900Y0022476D01*
Y0022488D01*
X-0021024Y0016420D02*
Y0016304D01*
X-0020440Y0015720D01*
X-0024460Y0018308D02*
X-0024516Y0018252D01*
G54D22*
G01X-0025584Y0019272D02*
X-0024564Y0018252D01*
X-0024544Y0018232D01*
X-0024516Y0018252D02*
X-0024564D01*
X-0024544Y0018232D01*
X-0024460Y0018252D02*
X-0024516D01*
X-0024564D01*
X-0024544Y0018232D01*
G54D24*
X-0024556Y0018012D03*
Y0017452D03*
G54D25*
X-0025928Y0013604D03*
Y0014391D03*
X-0025141Y0013604D03*
Y0014391D03*
X-0024353Y0013604D03*
Y0014391D03*
X-0023566Y0013604D03*
Y0014391D03*
X-0022778Y0013604D03*
Y0014391D03*
X-0021991Y0013604D03*
Y0014391D03*
X-0021204Y0013604D03*
Y0014391D03*
X-0020416Y0013604D03*
Y0014391D03*
X-0019629Y0013604D03*
Y0014391D03*
X-0018841Y0013604D03*
Y0014391D03*
G54D26*
X-0019900Y0022488D03*
X-0023840Y0023180D03*
X-0019300Y0021436D03*
X-0020964Y0022728D03*
X-0025588D03*
X-0024112Y0017400D03*
X-0022972Y0023108D03*
X-0024544Y0018232D03*
X-0023945Y0022119D03*
X-0022964Y0017564D03*
X-0022576Y0017196D03*
X-0022180Y0016736D03*
X-0021520Y0016836D03*
X-0020440Y0015720D03*
X-0021024Y0016420D03*
X-0021760Y0016376D03*
X-0025220Y0016400D03*
M02*
