*
G04 Mass Parameters ***
*
G04 Image ***
*
%INC:\CAINPCB\ECBOT\V5\TCM8240_CAM\TMC8240-5.SST*%
%ICAS*%
%MOIN*%
%IPPOS*%
%ASAXBY*%
G74*%FSLAN2X34Y34*%
*
G04 Aperture Definitions ***
*
%ADD10R,0.0400X0.0500*%
%ADD11R,0.0500X0.0500*%
%ADD12R,0.0500X0.0400*%
%ADD13R,0.0394X0.0590*%
%ADD14R,0.0236X0.0551*%
%ADD15R,0.0551X0.0236*%
%ADD16C,0.0472*%
%ADD17R,0.0390X0.0272*%
%ADD18C,0.0394*%
%ADD19C,0.0157*%
%ADD20C,0.0100*%
%ADD21C,0.0079*%
%ADD22C,0.0118*%
%ADD23C,0.0080*%
%ADD24R,0.0500X0.0400*%
%ADD25C,0.0472*%
%ADD26C,0.0394*%
%ADD27R,0.0400X0.0500*%
%ADD28R,0.0500X0.0500*%
%ADD29R,0.0394X0.0590*%
%ADD30R,0.0315X0.0630*%
%ADD31R,0.0630X0.0315*%
%ADD32C,0.0551*%
%ADD33C,0.0010*%
%ADD34C,0.0060*%
%ADD35C,0.0020*%
%ADD36C,0.0059*%
*
G04 Plot Data ***
*
G54D19*
G01X-0026326Y0014651D02*
Y0015476D01*
X-0018452D01*
X-0018450Y0014719D01*
Y0012939D01*
X-0018448Y0012628D01*
X-0026326D01*
Y0014651D01*
G54D20*
G01X-0024486Y0017187D02*
X-0024820D01*
X-0024486Y0017521D01*
Y0017604D01*
X-0024528Y0017687D01*
X-0024778D01*
X-0024820Y0017604D01*
X-0025061Y0017187D02*
X-0025228D01*
X-0025145D02*
Y0017687D01*
X-0025228Y0017604D01*
X-0025553Y0017687D02*
Y0017271D01*
X-0025595Y0017187D01*
X-0025845D01*
X-0025886Y0017271D01*
Y0017687D01*
X-0022313Y0015723D02*
X-0022397Y0015806D01*
X-0022438Y0015889D01*
Y0016056D01*
X-0022397Y0016139D01*
X-0022313Y0016223D01*
X-0022230D01*
X-0022147Y0016139D01*
X-0022105Y0016056D01*
Y0015889D01*
X-0022147Y0015806D01*
X-0022230Y0015723D01*
X-0022313D01*
X-0022680D02*
X-0022847D01*
X-0022763D02*
Y0016223D01*
X-0022847Y0016139D01*
X-0023172Y0016223D02*
Y0015806D01*
X-0023213Y0015723D01*
X-0023463D01*
X-0023505Y0015806D01*
Y0016223D01*
X-0020366Y0022931D02*
X-0020532D01*
X-0020449D02*
Y0023431D01*
X-0020532Y0023348D01*
X-0020857Y0022931D02*
X-0021024D01*
X-0020941D02*
Y0023431D01*
X-0021024Y0023348D01*
X-0021349Y0023431D02*
Y0023015D01*
X-0021391Y0022931D01*
X-0021641D01*
X-0021682Y0023015D01*
Y0023431D01*
G54D21*
G01X-0024544Y0021524D02*
Y0022120D01*
X-0023560D01*
X-0023960Y0018188D02*
X-0024544D01*
Y0019148D01*
X-0020608Y0018772D02*
Y0018380D01*
X-0020804Y0018184D01*
X-0021588D01*
X-0021196Y0022120D02*
X-0020608D01*
Y0021156D01*
G01X-0022580Y0018848D02*
G03X-0021276Y0020152I0000000J0001304D01*
G01X-0023884D02*
G03X-0022580Y0018848I0001304J0000000D01*
Y0021456D02*
G03X-0023884Y0020152I0000000J0001304D01*
G01X-0021276D02*
G03X-0022580Y0021456I0001304J0000000D01*
G01X-0020912Y0018329D02*
G03X-0020757Y0018484I0000000J0000155D01*
G01X-0021067D02*
G03X-0020912Y0018329I0000155J0000000D01*
Y0018639D02*
G03X-0021067Y0018484I0000000J0000155D01*
G01X-0020757D02*
G03X-0020912Y0018639I0000155J0000000D01*
G01X-0022576Y0019644D02*
G03X-0022068Y0020152I0000000J0000508D01*
G01X-0023084D02*
G03X-0022576Y0019644I0000508J0000000D01*
Y0020660D02*
G03X-0023084Y0020152I0000000J0000508D01*
G01X-0022068D02*
G03X-0022576Y0020660I0000508J0000000D01*
G54D33*
G01X-0021150Y0023596D02*
X-0021172Y0023641D01*
X-0021306D01*
X-0021328Y0023596D01*
Y0023508D01*
X-0021283Y0023463D01*
X-0021150D01*
Y0023374D01*
X-0021328D01*
X-0021041Y0023508D02*
X-0021108Y0023641D01*
X-0020930Y0023508D02*
X-0021063D01*
X-0021108Y0023463D01*
Y0023419D01*
X-0021063Y0023374D01*
X-0020930D01*
Y0023641D01*
X-0019672Y0022283D02*
X-0019850D01*
X-0019672Y0022461D01*
Y0022505D01*
X-0019694Y0022550D01*
X-0019828D01*
X-0019850Y0022505D01*
X-0019959Y0022416D02*
X-0019892Y0022283D01*
X-0020070Y0022416D02*
X-0019936D01*
X-0019892Y0022461D01*
Y0022505D01*
X-0019936Y0022550D01*
X-0020070D01*
Y0022283D01*
X-0023640Y0022543D02*
X-0023729D01*
X-0023685D02*
Y0022810D01*
X-0023729Y0022765D01*
X-0023883Y0022676D02*
X-0023816Y0022543D01*
X-0023994Y0022676D02*
X-0023860D01*
X-0023816Y0022721D01*
Y0022765D01*
X-0023860Y0022810D01*
X-0023994D01*
Y0022543D01*
X-0022508Y0022951D02*
X-0022597D01*
X-0022553D02*
Y0023218D01*
X-0022597Y0023173D01*
X-0022684Y0022995D02*
X-0022706Y0022951D01*
X-0022840D01*
X-0022862Y0022995D01*
Y0023173D01*
X-0022840Y0023218D01*
X-0022706D01*
X-0022684Y0023173D01*
X-0024251Y0024015D02*
X-0025706D01*
X-0025863Y0023858D01*
Y0022757D01*
X-0024251D01*
Y0024015D01*
G54D34*
G01X-0019751Y0018979D02*
Y0018756D01*
X-0019973Y0018979D01*
X-0020029D01*
X-0020084Y0018951D01*
Y0018784D01*
X-0020029Y0018756D01*
X-0019751Y0018609D02*
Y0018414D01*
X-0020084D01*
X-0019939Y0017046D02*
Y0016935D01*
Y0016990D02*
X-0020272D01*
X-0020216Y0016935D01*
X-0019939Y0016732D02*
Y0016537D01*
X-0020272D01*
X-0019587Y0017932D02*
X-0018837D01*
Y0019532D01*
X-0019587D01*
Y0017932D01*
X-0019049Y0017680D02*
X-0019799D01*
Y0016080D01*
X-0019049D01*
Y0017680D01*
G54D35*
G01X-0026315Y0015315D02*
X-0018439D01*
Y0012655D01*
X-0026315D01*
Y0015315D01*
G54D36*
G01X-0025018Y0022397D02*
X-0025193D01*
X-0025018Y0022572D01*
Y0022616D01*
X-0025040Y0022660D01*
X-0025172D01*
X-0025193Y0022616D01*
X-0025377Y0022528D02*
X-0025508D01*
Y0022397D02*
Y0022660D01*
X-0025333D01*
X-0025648D02*
Y0022441D01*
X-0025670Y0022397D01*
X-0025801D01*
X-0025823Y0022441D01*
Y0022660D01*
M02*
