*
G04 Mass Parameters ***
*
G04 Image ***
*
%INC:\CAINPCB\ECBOT\V5\TCM8240_CAM\TMC8240-5.SMT*%
%ICAS*%
%MOIN*%
%IPPOS*%
%ASAXBY*%
G74*%FSLAN2X34Y34*%
*
G04 Aperture Definitions ***
*
%ADD10R,0.0400X0.0500*%
%ADD11R,0.0500X0.0500*%
%ADD12R,0.0500X0.0400*%
%ADD13R,0.0394X0.0590*%
%ADD14R,0.0236X0.0551*%
%ADD15R,0.0551X0.0236*%
%ADD16C,0.0472*%
%ADD17R,0.0390X0.0272*%
%ADD18C,0.0394*%
%ADD19C,0.0157*%
%ADD20C,0.0100*%
%ADD21C,0.0079*%
%ADD22C,0.0118*%
%ADD23C,0.0080*%
%ADD24R,0.0500X0.0400*%
%ADD25C,0.0472*%
%ADD26C,0.0394*%
%ADD27R,0.0400X0.0500*%
%ADD28R,0.0500X0.0500*%
%ADD29R,0.0394X0.0590*%
%ADD30R,0.0315X0.0630*%
%ADD31R,0.0630X0.0315*%
%ADD32C,0.0551*%
*
G04 Plot Data ***
*
G54D24*
X-0019916Y0023564D03*
Y0023004D03*
X-0023840Y0023180D03*
Y0023740D03*
G54D26*
X-0019900Y0022488D03*
X-0023840Y0023180D03*
X-0019300Y0021436D03*
X-0020964Y0022728D03*
X-0025588D03*
X-0024112Y0017400D03*
X-0022972Y0023108D03*
X-0024544Y0018232D03*
X-0023945Y0022119D03*
X-0022964Y0017564D03*
X-0022576Y0017196D03*
X-0022180Y0016736D03*
X-0021520Y0016836D03*
X-0020440Y0015720D03*
X-0021024Y0016420D03*
X-0021760Y0016376D03*
X-0025220Y0016400D03*
G54D27*
X-0020828Y0023552D03*
X-0021388D03*
X-0022972Y0023688D03*
X-0022412D03*
G54D28*
X-0019212Y0019152D03*
Y0018312D03*
X-0019424Y0016460D03*
Y0017300D03*
G54D29*
X-0025923Y0013019D03*
Y0014988D03*
X-0025135Y0013019D03*
Y0014988D03*
X-0024348Y0013019D03*
Y0014988D03*
X-0023560Y0013019D03*
Y0014988D03*
X-0022773Y0013019D03*
Y0014988D03*
X-0021986Y0013019D03*
Y0014988D03*
X-0021198Y0013019D03*
Y0014988D03*
X-0020411Y0013019D03*
Y0014988D03*
X-0019623Y0013019D03*
Y0014988D03*
X-0018836Y0013019D03*
Y0014988D03*
G54D30*
X-0021394Y0022119D03*
X-0021788D03*
X-0022182D03*
X-0022575D03*
X-0022969D03*
X-0023363D03*
X-0023757Y0018182D03*
X-0023363D03*
X-0022969D03*
X-0022575D03*
X-0022182D03*
X-0021788D03*
G54D31*
X-0020607Y0018970D03*
Y0019363D03*
Y0019757D03*
Y0020151D03*
Y0020545D03*
Y0020938D03*
X-0024544Y0021332D03*
Y0020938D03*
Y0020545D03*
Y0020151D03*
Y0019757D03*
Y0019363D03*
G54D32*
X-0025928Y0013604D03*
Y0014391D03*
X-0025141Y0013604D03*
Y0014391D03*
X-0024353Y0013604D03*
Y0014391D03*
X-0023566Y0013604D03*
Y0014391D03*
X-0022778Y0013604D03*
Y0014391D03*
X-0021991Y0013604D03*
Y0014391D03*
X-0021204Y0013604D03*
Y0014391D03*
X-0020416Y0013604D03*
Y0014391D03*
X-0019629Y0013604D03*
Y0014391D03*
X-0018841Y0013604D03*
Y0014391D03*
M02*
