*
G04 Mass Parameters ***
*
G04 Image ***
*
%INC:\CAINPCB\ECBOT\V5\TCM8240_CAM\TMC8240-5.AST*%
%ICAS*%
%MOIN*%
%IPPOS*%
%ASAXBY*%
G74*%FSLAN2X34Y34*%
*
G04 Aperture Definitions ***
*
%ADD10R,0.0400X0.0500*%
%ADD11R,0.0500X0.0500*%
%ADD12R,0.0500X0.0400*%
%ADD13R,0.0394X0.0590*%
%ADD14R,0.0236X0.0551*%
%ADD15R,0.0551X0.0236*%
%ADD16C,0.0472*%
%ADD17R,0.0390X0.0272*%
%ADD18C,0.0394*%
%ADD19C,0.0157*%
%ADD20C,0.0100*%
%ADD21C,0.0079*%
%ADD22C,0.0118*%
%ADD23C,0.0080*%
%ADD24R,0.0500X0.0400*%
%ADD25C,0.0472*%
%ADD26C,0.0394*%
%ADD27R,0.0400X0.0500*%
%ADD28R,0.0500X0.0500*%
%ADD29R,0.0394X0.0590*%
%ADD30R,0.0315X0.0630*%
%ADD31R,0.0630X0.0315*%
%ADD32C,0.0551*%
%ADD33C,0.0010*%
%ADD34C,0.0060*%
%ADD35C,0.0020*%
%ADD36C,0.0059*%
*
G04 Plot Data ***
*
G54D19*
G01X-0026408Y0024104D02*
X-0018396D01*
Y0012512D01*
X-0026408D01*
Y0024104D01*
G54D20*
G01X-0024486Y0017187D02*
X-0024820D01*
X-0024486Y0017521D01*
Y0017604D01*
X-0024528Y0017687D01*
X-0024778D01*
X-0024820Y0017604D01*
X-0025061Y0017187D02*
X-0025228D01*
X-0025145D02*
Y0017687D01*
X-0025228Y0017604D01*
X-0025553Y0017687D02*
Y0017271D01*
X-0025595Y0017187D01*
X-0025845D01*
X-0025886Y0017271D01*
Y0017687D01*
X-0023006Y0015811D02*
X-0022839D01*
X-0022798Y0015728D01*
Y0015561D01*
X-0022756Y0015478D01*
X-0023048D01*
X-0023089Y0015561D01*
X-0023048Y0015644D01*
X-0022798D01*
X-0023331Y0015811D02*
X-0023498D01*
X-0023539Y0015728D01*
X-0023623D01*
Y0015811D02*
Y0015478D01*
X-0023906D02*
X-0024156D01*
X-0024198Y0015561D01*
Y0015728D01*
X-0024156Y0015811D01*
X-0023906D01*
X-0023864Y0015728D01*
Y0015644D01*
X-0024198D01*
X-0024606Y0015478D02*
Y0015728D01*
X-0024439Y0015478D02*
Y0015728D01*
X-0024481Y0015811D01*
X-0024564D01*
X-0024606Y0015728D01*
X-0024648Y0015811D01*
X-0024731D01*
X-0024773Y0015728D01*
Y0015478D01*
X-0025264Y0015811D02*
X-0025098D01*
X-0025056Y0015728D01*
Y0015561D01*
X-0025014Y0015478D01*
X-0025306D01*
X-0025348Y0015561D01*
X-0025306Y0015644D01*
X-0025056D01*
X-0025589Y0015811D02*
X-0025839D01*
X-0025881Y0015728D01*
Y0015561D01*
X-0025839Y0015478D01*
X-0025589D01*
X-0024689Y0016603D02*
X-0024773Y0016686D01*
X-0024814Y0016769D01*
Y0016936D01*
X-0024773Y0017019D01*
X-0024689Y0017103D01*
X-0024606D01*
X-0024523Y0017019D01*
X-0024481Y0016936D01*
Y0016769D01*
X-0024523Y0016686D01*
X-0024606Y0016603D01*
X-0024689D01*
X-0025056D02*
X-0025223D01*
X-0025139D02*
Y0017103D01*
X-0025223Y0017019D01*
X-0025548Y0017103D02*
Y0016686D01*
X-0025589Y0016603D01*
X-0025839D01*
X-0025881Y0016686D01*
Y0017103D01*
X-0022005Y0022215D02*
Y0022548D01*
X-0021671Y0022215D01*
X-0021588D01*
X-0021505Y0022257D01*
Y0022507D01*
X-0021588Y0022548D01*
X-0021755Y0022873D02*
Y0023123D01*
X-0022005D02*
X-0021505D01*
Y0022790D01*
Y0023365D02*
X-0021921D01*
X-0022005Y0023407D01*
Y0023657D01*
X-0021921Y0023698D01*
X-0021505D01*
G54D34*
G01X-0018868Y0023474D02*
Y0023252D01*
X-0018756Y0023474D02*
X-0018923D01*
X-0019090Y0023391D01*
Y0023335D01*
X-0018923Y0023252D01*
X-0018756D01*
X-0018923Y0023076D02*
X-0018979Y0023104D01*
X-0019034D01*
X-0019090Y0023076D01*
Y0022910D01*
X-0019034Y0022882D01*
X-0018979D01*
X-0018923Y0022910D01*
Y0023076D01*
X-0018868Y0023104D01*
X-0018812D01*
X-0018756Y0023076D01*
Y0022910D01*
X-0018812Y0022882D01*
X-0018868D01*
X-0018923Y0022910D01*
X-0018645Y0022706D02*
X-0018701Y0022734D01*
X-0018812D01*
Y0022678D01*
X-0018756D01*
Y0022734D01*
X-0018812Y0022225D02*
X-0018756Y0022281D01*
Y0022392D01*
X-0018812Y0022447D01*
X-0018868D01*
X-0018979Y0022336D01*
X-0019090Y0022447D01*
Y0022225D01*
X-0018923Y0022077D02*
Y0021855D01*
Y0021707D02*
Y0021485D01*
X-0018756Y0021707D02*
X-0019090D01*
X-0018756Y0021485D02*
X-0019090D01*
X-0018979Y0021310D02*
X-0018756D01*
Y0021337D02*
Y0021143D01*
X-0018812Y0021115D01*
X-0018979D01*
X-0018756Y0020967D02*
Y0020745D01*
X-0018979Y0020967D01*
X-0019034D01*
X-0019090Y0020940D01*
Y0020773D01*
X-0019034Y0020745D01*
X-0018756Y0020597D02*
Y0020375D01*
X-0018979Y0020597D01*
X-0019034D01*
X-0019090Y0020570D01*
Y0020403D01*
X-0019034Y0020375D01*
X-0018923Y0020227D02*
Y0020005D01*
X-0018756Y0019857D02*
Y0019635D01*
X-0018979Y0019857D01*
X-0019034D01*
X-0019090Y0019830D01*
Y0019663D01*
X-0019034Y0019635D01*
X-0018756Y0019321D02*
X-0019090Y0019487D01*
Y0019265D01*
X-0018756Y0019117D02*
Y0019006D01*
Y0019062D02*
X-0019090D01*
X-0019034Y0019006D01*
X-0018756Y0018803D02*
Y0018692D01*
Y0018748D02*
X-0019090D01*
X-0019034Y0018692D01*
X-0018923Y0018266D02*
Y0018433D01*
X-0018979Y0018489D01*
X-0019034D01*
X-0019090Y0018433D01*
Y0018266D01*
X-0018756D01*
X-0018923Y0018119D02*
Y0017896D01*
Y0017693D02*
Y0017526D01*
X-0018756Y0017749D02*
Y0017526D01*
X-0019090D01*
Y0017749D01*
X-0019034Y0017379D02*
X-0019090Y0017351D01*
Y0017184D01*
X-0019034Y0017156D01*
X-0018979D01*
X-0018923Y0017184D01*
Y0017351D01*
X-0018868Y0017379D01*
X-0018812D01*
X-0018756Y0017351D01*
Y0017184D01*
X-0018812Y0017156D01*
X-0018756Y0017009D02*
Y0016814D01*
X-0019090D01*
Y0016667D02*
X-0018812D01*
X-0018756Y0016639D01*
Y0016472D01*
X-0018812Y0016444D01*
X-0019090D01*
X-0018923Y0016074D02*
Y0016241D01*
X-0018979Y0016297D01*
X-0019034D01*
X-0019090Y0016241D01*
Y0016074D01*
X-0018756D01*
X-0018879Y0018834D02*
Y0019057D01*
X-0018657Y0018834D01*
X-0018601D01*
X-0018546Y0018862D01*
Y0019029D01*
X-0018601Y0019057D01*
X-0018879Y0019204D02*
Y0019399D01*
X-0018546D01*
X-0019768Y0012138D02*
Y0012360D01*
X-0019879Y0012138D02*
X-0019713D01*
X-0019546Y0012221D01*
Y0012277D01*
X-0019713Y0012360D01*
X-0019879D01*
X-0019713Y0012536D02*
X-0019657Y0012508D01*
X-0019602D01*
X-0019546Y0012536D01*
Y0012702D01*
X-0019602Y0012730D01*
X-0019657D01*
X-0019713Y0012702D01*
Y0012536D01*
X-0019768Y0012508D01*
X-0019824D01*
X-0019879Y0012536D01*
Y0012702D01*
X-0019824Y0012730D01*
X-0019768D01*
X-0019713Y0012702D01*
X-0019991Y0012906D02*
X-0019935Y0012878D01*
X-0019824D01*
Y0012933D01*
X-0019879D01*
Y0012878D01*
X-0019824Y0013387D02*
X-0019879Y0013331D01*
Y0013220D01*
X-0019824Y0013164D01*
X-0019768D01*
X-0019657Y0013276D01*
X-0019546Y0013164D01*
Y0013387D01*
X-0019713Y0013534D02*
Y0013757D01*
Y0013904D02*
Y0014127D01*
X-0019879Y0013904D02*
X-0019546D01*
X-0019879Y0014127D02*
X-0019546D01*
X-0019657Y0014302D02*
X-0019879D01*
Y0014274D02*
Y0014469D01*
X-0019824Y0014497D01*
X-0019657D01*
X-0019879Y0014644D02*
Y0014867D01*
X-0019657Y0014644D01*
X-0019602D01*
X-0019546Y0014672D01*
Y0014839D01*
X-0019602Y0014867D01*
X-0019879Y0015014D02*
Y0015237D01*
X-0019657Y0015014D01*
X-0019602D01*
X-0019546Y0015042D01*
Y0015209D01*
X-0019602Y0015237D01*
X-0019713Y0015384D02*
Y0015607D01*
X-0019879Y0015754D02*
Y0015977D01*
X-0019657Y0015754D01*
X-0019602D01*
X-0019546Y0015782D01*
Y0015949D01*
X-0019602Y0015977D01*
X-0019879Y0016291D02*
X-0019546Y0016124D01*
Y0016347D01*
X-0019879Y0016494D02*
Y0016605D01*
Y0016550D02*
X-0019546D01*
X-0019602Y0016605D01*
X-0019879Y0016809D02*
Y0016920D01*
Y0016864D02*
X-0019546D01*
X-0019602Y0016920D01*
X-0019713Y0017345D02*
Y0017179D01*
X-0019657Y0017123D01*
X-0019602D01*
X-0019546Y0017179D01*
Y0017345D01*
X-0019879D01*
X-0019713Y0017493D02*
Y0017715D01*
Y0017919D02*
Y0018085D01*
X-0019879Y0017863D02*
Y0018085D01*
X-0019546D01*
Y0017863D01*
X-0019602Y0018233D02*
X-0019546Y0018261D01*
Y0018428D01*
X-0019602Y0018455D01*
X-0019657D01*
X-0019713Y0018428D01*
Y0018261D01*
X-0019768Y0018233D01*
X-0019824D01*
X-0019879Y0018261D01*
Y0018428D01*
X-0019824Y0018455D01*
X-0019879Y0018603D02*
Y0018798D01*
X-0019546D01*
Y0018945D02*
X-0019824D01*
X-0019879Y0018973D01*
Y0019140D01*
X-0019824Y0019168D01*
X-0019546D01*
X-0019713Y0019538D02*
Y0019371D01*
X-0019657Y0019315D01*
X-0019602D01*
X-0019546Y0019371D01*
Y0019538D01*
X-0019879D01*
X-0019757Y0016722D02*
Y0016611D01*
Y0016666D02*
X-0020090D01*
X-0020034Y0016611D01*
X-0019757Y0016408D02*
Y0016213D01*
X-0020090D01*
X-0019587Y0017932D02*
X-0018837D01*
Y0019532D01*
X-0019587D01*
Y0017932D01*
X-0019049Y0017680D02*
X-0019799D01*
Y0016080D01*
X-0019049D01*
Y0017680D01*
G54D24*
X-0019916Y0023564D03*
Y0023004D03*
X-0023840Y0023180D03*
Y0023740D03*
G54D27*
X-0020828Y0023552D03*
X-0021388D03*
X-0022972Y0023688D03*
X-0022412D03*
G54D28*
X-0019212Y0019152D03*
Y0018312D03*
X-0019424Y0016460D03*
Y0017300D03*
M02*
