*
G04 Mass Parameters ***
*
G04 Image ***
*
%INC:\CAINPCB\ECBOT\V5\TCM8240_CAM\TMC8240-5.TOP*%
%ICAS*%
%MOIN*%
%IPPOS*%
%ASAXBY*%
G74*%FSLAN2X34Y34*%
*
G04 Aperture Definitions ***
*
%ADD10R,0.0400X0.0500*%
%ADD11R,0.0500X0.0500*%
%ADD12R,0.0500X0.0400*%
%ADD13R,0.0394X0.0590*%
%ADD14R,0.0236X0.0551*%
%ADD15R,0.0551X0.0236*%
%ADD16C,0.0472*%
%ADD17R,0.0390X0.0272*%
%ADD18C,0.0394*%
%ADD19C,0.0157*%
%ADD20C,0.0100*%
%ADD21C,0.0079*%
%ADD22C,0.0118*%
%ADD23C,0.0080*%
*
G04 Plot Data ***
*
G54D19*
G01X-0019212Y0019152D02*
Y0020328D01*
X-0019822Y0020938D01*
X-0020607D01*
X-0021745Y0023659D02*
X-0022055D01*
X-0021745Y0023959D02*
Y0023145D01*
X-0021185Y0023959D02*
X-0021745D01*
Y0023518D02*
X-0022055D01*
X-0021031Y0023959D02*
X-0021185D01*
X-0020471D02*
X-0021031D01*
X-0020471D02*
Y0023145D01*
X-0020323Y0023518D02*
X-0020471D01*
X-0020239Y0022385D02*
X-0020875D01*
X-0020323Y0023207D02*
Y0022647D01*
X-0019509Y0023207D02*
Y0022647D01*
X-0020323Y0023361D02*
Y0023207D01*
Y0023921D02*
Y0023361D01*
X-0019509Y0023921D02*
X-0020323D01*
X-0024247Y0023447D02*
X-0024920D01*
X-0024292Y0024132D02*
Y0024033D01*
X-0023329Y0024084D02*
X-0023433D01*
Y0024097D02*
X-0024247D01*
Y0024033D02*
X-0024920D01*
X-0025236Y0022878D02*
Y0022765D01*
X-0024247Y0024097D02*
Y0024033D01*
X-0018805Y0018719D02*
X-0019619D01*
Y0017905D01*
X-0018436Y0016580D02*
X-0018624D01*
X-0019110Y0017905D02*
X-0019619D01*
X-0019448Y0019978D02*
X-0019868D01*
X-0019619Y0019559D02*
Y0018745D01*
X-0018805D02*
X-0019619D01*
X-0018805Y0019559D02*
Y0018745D01*
X-0018436Y0015589D02*
X-0018620D01*
X-0019619Y0017996D02*
X-0019679D01*
X-0019056Y0017707D02*
X-0019679D01*
X-0022055Y0024095D02*
X-0022615D01*
X-0022055D02*
Y0023281D01*
X-0022615Y0024095D02*
X-0022769D01*
X-0018444Y0015492D02*
Y0012616D01*
Y0015492D02*
X-0018428Y0015480D01*
X-0018436Y0015488D02*
X-0018428Y0015480D01*
X-0018436Y0024132D02*
Y0015488D01*
Y0024132D02*
X-0026416D01*
X-0018444Y0015448D02*
X-0018620D01*
X-0019478Y0017905D02*
Y0017707D01*
X-0020216Y0022647D02*
X-0020323D01*
X-0021745Y0023376D02*
X-0022055D01*
X-0019509Y0022647D02*
X-0019583D01*
X-0018444Y0014032D02*
X-0018682D01*
X-0025850Y0022489D02*
Y0021604D01*
X-0018444Y0014598D02*
X-0018482D01*
X-0025940Y0022951D02*
X-0026416D01*
X-0022498Y0016580D02*
X-0023364D01*
X-0025635Y0021819D02*
X-0026416D01*
X-0023867Y0017144D02*
Y0016617D01*
X-0024328Y0019088D02*
Y0018512D01*
X-0024277Y0017713D02*
X-0024759D01*
X-0026069Y0015885D02*
X-0026416Y0015538D01*
X-0022735Y0024132D02*
Y0024095D01*
X-0022055Y0023281D02*
X-0022615D01*
X-0020045Y0024132D02*
Y0023921D01*
X-0025940Y0023235D02*
X-0026416D01*
X-0025000Y0024132D02*
Y0023701D01*
X-0025940Y0023943D02*
X-0026416D01*
X-0024717Y0021801D02*
Y0021607D01*
X-0025940Y0023659D02*
X-0026416D01*
X-0020611Y0023145D02*
Y0022756D01*
X-0022310Y0023281D02*
Y0022917D01*
X-0022300Y0021687D02*
X-0022457D01*
X-0022694D02*
X-0022851D01*
X-0023088D02*
X-0023245D01*
X-0024786Y0022668D02*
X-0025239D01*
X-0026069Y0020120D02*
X-0026416D01*
X-0020045Y0020702D02*
Y0020154D01*
X-0022372Y0016439D02*
X-0023364D01*
X-0019479Y0020261D02*
X-0020152D01*
X-0019903Y0021239D02*
Y0021174D01*
X-0019337Y0017905D02*
Y0017707D01*
X-0026069Y0019553D02*
X-0026416D01*
X-0026069Y0017571D02*
X-0026416D01*
X-0026069Y0019978D02*
X-0026416D01*
X-0025493Y0021960D02*
X-0026416D01*
X-0025879Y0022527D02*
X-0026416D01*
X-0018436Y0018562D02*
X-0018805D01*
X-0022300Y0018615D02*
X-0022457D01*
X-0026069Y0016863D02*
X-0026416D01*
X-0018976Y0020328D02*
Y0019559D01*
X-0025479Y0021038D02*
Y0021015D01*
X-0023638Y0021819D02*
X-0023757D01*
X-0026069Y0017288D02*
X-0026416D01*
X-0026069Y0017854D02*
X-0026416D01*
Y0024132D02*
Y0015538D01*
X-0026082Y0015872D02*
X-0026416D01*
X-0026274Y0024132D02*
Y0015680D01*
X-0026365Y0015589D02*
X-0026416D01*
X-0023757D02*
X-0023791D01*
X-0023757Y0016439D02*
X-0023791D01*
X-0023757Y0015731D02*
X-0023791D01*
X-0022310Y0021687D02*
Y0018615D01*
X-0021602Y0021687D02*
Y0018615D01*
X-0021513D02*
Y0017750D01*
X-0022735Y0021687D02*
Y0018615D01*
X-0022593Y0021687D02*
Y0018615D01*
X-0023088D02*
X-0023245D01*
X-0023018Y0021687D02*
Y0018615D01*
X-0022876Y0021687D02*
Y0018615D01*
X-0021744Y0021687D02*
Y0018615D01*
X-0026069Y0019270D02*
X-0026416D01*
X-0020174Y0020702D02*
Y0020663D01*
X-0024032Y0018615D02*
Y0017750D01*
X-0023953D02*
X-0024032D01*
X-0021040Y0019412D02*
X-0024111D01*
Y0020426D02*
Y0020269D01*
Y0020663D02*
Y0020426D01*
Y0019639D02*
Y0019482D01*
Y0020820D02*
Y0020663D01*
Y0021057D02*
Y0020820D01*
Y0020032D02*
Y0019875D01*
Y0019482D02*
Y0019088D01*
X-0021907Y0018615D02*
X-0022064D01*
X-0026069Y0019695D02*
X-0026416D01*
X-0018436Y0020686D02*
X-0019236D01*
X-0024261Y0021960D02*
X-0024557D01*
X-0024009Y0021771D02*
Y0018615D01*
X-0026069Y0020261D02*
X-0026416D01*
X-0023245Y0021687D02*
X-0023638D01*
X-0024132Y0021819D02*
X-0024699D01*
X-0024111Y0021214D02*
Y0021057D01*
X-0025918Y0021536D02*
X-0026416D01*
X-0025777Y0021677D02*
X-0026416D01*
X-0021185Y0023145D02*
X-0021198D01*
X-0025241Y0021252D02*
X-0025265D01*
X-0021040Y0020828D02*
X-0024111D01*
X-0022064Y0021687D02*
X-0022300D01*
X-0021040Y0020969D02*
X-0024111D01*
X-0020894Y0022381D02*
Y0021214D01*
X-0020328Y0024132D02*
Y0021495D01*
X-0021040Y0021214D02*
Y0020820D01*
X-0020248Y0021575D02*
X-0020610Y0021214D01*
X-0020753Y0022444D02*
Y0021214D01*
X-0020610D02*
X-0021040D01*
Y0020663D02*
Y0020426D01*
X-0020174Y0020663D02*
Y0020426D01*
X-0021040Y0020820D02*
Y0020663D01*
Y0020426D02*
Y0020269D01*
X-0020174Y0020426D02*
Y0020284D01*
X-0021040Y0019245D02*
Y0019088D01*
X-0021177Y0021687D02*
Y0017001D01*
X-0024920Y0023659D02*
X-0024974D01*
X-0018943Y0014011D02*
X-0018920Y0013989D01*
X-0018770Y0024132D02*
Y0018176D01*
X-0022168Y0016382D02*
Y0016237D01*
X-0018436Y0023235D02*
X-0019509D01*
X-0018487Y0024132D02*
Y0015440D01*
X-0026069Y0017996D02*
X-0026416D01*
X-0023757Y0016014D02*
X-0023791D01*
X-0022900D02*
X-0023364D01*
X-0026069Y0017713D02*
X-0026416D01*
X-0022310Y0016407D02*
Y0016237D01*
X-0023159Y0017269D02*
Y0015754D01*
X-0022735Y0016879D02*
Y0016179D01*
X-0026069Y0020545D02*
X-0026416D01*
X-0024434Y0024132D02*
Y0024033D01*
X-0024009Y0024132D02*
Y0024097D01*
X-0026069Y0016014D02*
X-0026416D01*
X-0018436Y0021536D02*
X-0018960D01*
X-0024247Y0024084D02*
X-0026416D01*
X-0021907Y0021687D02*
X-0022064D01*
X-0018444Y0012757D02*
X-0018482D01*
X-0018487Y0014220D02*
Y0013775D01*
X-0018805Y0018210D02*
X-0018689Y0018095D01*
X-0024920Y0023943D02*
X-0025236D01*
X-0023584Y0024132D02*
Y0024097D01*
X-0020804Y0018279D02*
X-0021513D01*
X-0019594Y0021239D02*
X-0020028D01*
X-0024247Y0023447D02*
Y0023383D01*
X-0024434Y0023447D02*
Y0023368D01*
X-0018444Y0013041D02*
X-0018482D01*
X-0018444Y0014173D02*
X-0018514D01*
X-0021040Y0020403D02*
X-0024111D01*
X-0021040Y0020686D02*
X-0024111D01*
X-0022874Y0017005D02*
X-0023364D01*
X-0026223Y0015731D02*
X-0026416D01*
X-0018436Y0017713D02*
X-0018624D01*
X-0019060Y0017854D02*
X-0019679D01*
X-0023433Y0024097D02*
Y0023937D01*
X-0023329Y0023943D02*
X-0023433D01*
X-0020045Y0022165D02*
Y0021633D01*
X-0022593Y0024132D02*
Y0024095D01*
X-0024032Y0017854D02*
X-0024759D01*
X-0023638Y0021923D02*
X-0023650D01*
X-0023638D02*
Y0021687D01*
X-0025383Y0021111D02*
X-0025407D01*
X-0023757Y0016863D02*
X-0024113D01*
X-0022027Y0021687D02*
Y0018615D01*
X-0024032Y0018562D02*
X-0024328D01*
X-0020804Y0017713D02*
X-0021592D01*
X-0023042Y0015872D02*
X-0023364D01*
X-0020894Y0018694D02*
Y0017284D01*
X-0024920Y0023283D02*
Y0022697D01*
X-0024151Y0024132D02*
Y0024097D01*
X-0025100Y0021394D02*
X-0025124D01*
X-0024434Y0022084D02*
Y0021607D01*
X-0024920Y0024033D02*
Y0023447D01*
X-0024292D02*
Y0023377D01*
X-0026069Y0021111D02*
X-0026416D01*
X-0024920Y0023235D02*
X-0024955D01*
X-0020753Y0023145D02*
Y0023012D01*
X-0025940Y0023072D02*
Y0022765D01*
Y0023518D02*
X-0026416D01*
X-0025940Y0023658D02*
Y0023447D01*
Y0024033D02*
Y0023658D01*
X-0025236Y0024033D02*
X-0025940D01*
X-0018444Y0015023D02*
X-0018482D01*
X-0020890Y0017288D02*
X-0021592D01*
X-0018436Y0018138D02*
X-0018732D01*
X-0018912Y0014004D02*
Y0013991D01*
X-0018444Y0012899D02*
X-0018482D01*
X-0018436Y0017147D02*
X-0018624D01*
X-0021031Y0023145D02*
X-0021185D01*
X-0019509Y0023361D02*
Y0023207D01*
X-0019195Y0017905D02*
Y0017707D01*
X-0018436Y0022810D02*
X-0019509D01*
X-0018436Y0022951D02*
X-0019509D01*
X-0018436Y0023093D02*
X-0019509D01*
X-0018436Y0019695D02*
X-0018976D01*
X-0020323Y0023376D02*
X-0020471D01*
X-0020323Y0023659D02*
X-0020471D01*
X-0018436Y0023518D02*
X-0019509D01*
X-0020323Y0023801D02*
X-0020471D01*
X-0018436Y0019978D02*
X-0018976D01*
X-0018436Y0021111D02*
X-0019160D01*
X-0020323Y0023235D02*
X-0020471D01*
X-0021602Y0024132D02*
Y0023959D01*
X-0023481Y0017750D02*
X-0023492D01*
X-0022851Y0018615D02*
X-0023088D01*
X-0023186Y0017288D02*
X-0023364D01*
X-0025069Y0022385D02*
X-0025499D01*
X-0023301Y0017750D02*
Y0017672D01*
X-0024032Y0017996D02*
X-0024280D01*
X-0024032Y0018279D02*
X-0024193D01*
X-0023301Y0017456D02*
Y0015613D01*
X-0024032Y0018138D02*
X-0024203D01*
X-0018620Y0015752D02*
Y0015440D01*
X-0018436Y0017854D02*
X-0018624D01*
X-0018770Y0014004D02*
Y0013991D01*
X-0018482Y0015440D02*
Y0014551D01*
X-0024009Y0017750D02*
Y0017739D01*
X-0021052Y0022385D02*
X-0021119D01*
X-0022027Y0024132D02*
Y0022917D01*
X-0021865Y0022859D02*
X-0021651Y0022645D01*
X-0021198Y0023145D02*
Y0022994D01*
X-0020252Y0022527D02*
X-0020673D01*
X-0020323Y0022951D02*
X-0020689D01*
X-0021119Y0021687D02*
X-0021513D01*
X-0024111Y0021607D02*
Y0021214D01*
X-0020323Y0022810D02*
X-0020619D01*
X-0020323Y0022668D02*
X-0020615D01*
X-0021036Y0023145D02*
Y0023074D01*
X-0021885Y0024132D02*
Y0022877D01*
X-0020323Y0023093D02*
X-0021198D01*
X-0021591Y0023145D02*
Y0022558D01*
X-0022105Y0016297D02*
X-0023364D01*
X-0018629Y0024132D02*
Y0017987D01*
X-0018436Y0022668D02*
X-0019509D01*
X-0024277Y0022240D02*
X-0024910Y0021607D01*
X-0025940Y0023093D02*
X-0026416D01*
X-0024575Y0017879D02*
Y0017325D01*
X-0018444Y0013465D02*
X-0018473D01*
X-0018436Y0015731D02*
X-0018620D01*
X-0018482Y0013444D02*
Y0012616D01*
X-0018436Y0015872D02*
X-0018624D01*
X-0018436Y0016297D02*
X-0018624D01*
X-0018444Y0014740D02*
X-0018482D01*
X-0022593Y0016842D02*
Y0016237D01*
X-0022876Y0017009D02*
Y0016038D01*
X-0022085Y0016237D02*
X-0022596D01*
X-0022452Y0016509D02*
Y0016237D01*
X-0021319Y0021687D02*
Y0017127D01*
X-0018436Y0016155D02*
X-0018624D01*
X-0019619Y0018279D02*
X-0019679D01*
X-0020804Y0017430D02*
X-0021592D01*
X-0020028Y0021239D02*
X-0020093Y0021174D01*
X-0021040Y0019875D02*
Y0019639D01*
X-0018436Y0019837D02*
X-0018976D01*
X-0019619Y0019129D02*
X-0019679D01*
X-0019619Y0018704D02*
X-0019679D01*
X-0020611Y0022700D02*
Y0021214D01*
X-0019619Y0018987D02*
X-0019679D01*
X-0021040Y0020269D02*
Y0020032D01*
X-0018444Y0014315D02*
X-0018455D01*
X-0019619Y0019270D02*
X-0019679D01*
X-0023757Y0016297D02*
X-0023791D01*
X-0022697Y0016863D02*
X-0023364D01*
X-0022004Y0022917D02*
X-0022674D01*
X-0024298Y0022102D02*
X-0024416D01*
X-0023364Y0017540D02*
Y0015440D01*
X-0022735Y0016179D02*
X-0023294Y0015620D01*
X-0019056Y0017713D02*
X-0019679D01*
X-0019619Y0019553D02*
X-0019679D01*
X-0021031Y0017147D02*
X-0021350D01*
X-0020804Y0017571D02*
X-0021592D01*
X-0018436Y0024084D02*
X-0022055D01*
X-0019619Y0018138D02*
X-0019679D01*
X-0019440Y0021111D02*
X-0019661D01*
X-0018436Y0020261D02*
X-0018976D01*
X-0019448Y0020120D02*
X-0020010D01*
X-0019448Y0019837D02*
X-0019727D01*
X-0023183Y0015731D02*
X-0023364D01*
X-0020804Y0018138D02*
X-0021513D01*
X-0023757Y0016722D02*
X-0023972D01*
X-0023353Y0015440D02*
X-0023364D01*
X-0023481Y0018615D02*
X-0023638D01*
X-0021040Y0020261D02*
X-0024111D01*
X-0021513Y0018615D02*
X-0021907D01*
X-0019920Y0020702D02*
X-0019448Y0020230D01*
X-0025283Y0021234D02*
Y0021211D01*
X-0021040Y0020545D02*
X-0024111D01*
X-0023638Y0018615D02*
X-0024032D01*
X-0018805Y0019559D02*
X-0018976D01*
X-0024717Y0024132D02*
Y0024033D01*
X-0024292Y0019088D02*
Y0018481D01*
X-0026069Y0019412D02*
X-0026416D01*
X-0024151Y0017048D02*
Y0016901D01*
X-0023757Y0017288D02*
X-0023776D01*
X-0024448D02*
X-0024538D01*
X-0023757Y0017005D02*
X-0024255D01*
X-0020804Y0017854D02*
X-0021513D01*
X-0022457Y0018615D02*
X-0022694D01*
X-0023265Y0017750D02*
X-0023481D01*
X-0020174Y0020284D02*
X-0019739Y0019849D01*
X-0021745Y0023235D02*
X-0022641D01*
X-0022926Y0017147D02*
X-0023364D01*
X-0022758Y0016155D02*
X-0023364D01*
X-0024434Y0017895D02*
Y0017547D01*
X-0024292Y0017983D02*
Y0017705D01*
X-0024151Y0019088D02*
Y0017752D01*
X-0024920Y0022810D02*
X-0025236D01*
X-0022168Y0021687D02*
Y0018615D01*
X-0025000Y0021518D02*
Y0021491D01*
X-0026069Y0020828D02*
X-0026416D01*
X-0026069Y0018421D02*
X-0026416D01*
X-0025352Y0022102D02*
X-0026416D01*
X-0024111Y0021607D02*
X-0024910D01*
X-0023018Y0017214D02*
Y0015896D01*
X-0023757Y0016155D02*
X-0023791D01*
X-0023757Y0015448D02*
X-0023791D01*
X-0018436Y0021252D02*
X-0018997D01*
X-0018436Y0021394D02*
X-0018948D01*
X-0018912Y0024132D02*
Y0019559D01*
X-0020186Y0024132D02*
Y0023921D01*
X-0020894Y0024132D02*
Y0023959D01*
X-0018629Y0014060D02*
Y0013935D01*
X-0018444Y0014456D02*
X-0018453D01*
X-0025566Y0022374D02*
Y0021887D01*
X-0024517Y0023319D02*
X-0024553Y0023283D01*
X-0024717Y0023447D02*
Y0023283D01*
X-0024434Y0017252D02*
Y0017184D01*
X-0023867Y0024132D02*
Y0024097D01*
X-0024575Y0023447D02*
Y0023283D01*
X-0024247Y0023377D02*
X-0024378D01*
X-0023726Y0024132D02*
Y0024097D01*
X-0023757Y0016580D02*
X-0023832D01*
X-0024575Y0021942D02*
Y0021607D01*
X-0018436Y0020828D02*
X-0019378D01*
X-0026069Y0020969D02*
X-0026416D01*
X-0023443Y0024132D02*
Y0024097D01*
X-0023301Y0024132D02*
Y0024095D01*
X-0018436Y0016014D02*
X-0018624D01*
X-0018436Y0016722D02*
X-0018624D01*
X-0024151Y0021831D02*
Y0021607D01*
X-0025283Y0022548D02*
Y0022171D01*
X-0020571Y0021252D02*
X-0024111D01*
X-0019054Y0021182D02*
Y0020503D01*
X-0019761Y0022162D02*
Y0021633D01*
X-0019337Y0024132D02*
Y0021788D01*
X-0018436Y0023376D02*
X-0019509D01*
X-0019761Y0020544D02*
Y0019872D01*
X-0019904Y0020686D02*
X-0020174D01*
X-0019478Y0020261D02*
Y0019559D01*
X-0019620Y0022271D02*
Y0021633D01*
X-0026069Y0020403D02*
X-0026416D01*
X-0019594Y0021633D02*
X-0020109D01*
X-0026069Y0016580D02*
X-0026416D01*
X-0024422Y0017571D02*
X-0024759D01*
X-0026069Y0016722D02*
X-0026416D01*
X-0021040Y0019270D02*
X-0024111D01*
X-0022694Y0018615D02*
X-0022851D01*
X-0024032Y0018421D02*
X-0024244D01*
X-0025991Y0024132D02*
Y0021463D01*
X-0020156Y0022244D02*
X-0021119D01*
X-0019903Y0020685D02*
Y0020013D01*
X-0024977Y0021541D02*
Y0021505D01*
X-0021040Y0019482D02*
Y0019245D01*
X-0019619Y0018846D02*
X-0019679D01*
X-0021040Y0020032D02*
Y0019875D01*
X-0019619Y0018421D02*
X-0019679D01*
X-0021040Y0018987D02*
X-0024328D01*
X-0020804Y0018421D02*
X-0021513D01*
X-0020804Y0017996D02*
X-0021513D01*
X-0019619Y0018562D02*
X-0019679D01*
X-0023159Y0024132D02*
Y0024095D01*
X-0023018Y0024132D02*
Y0024095D01*
X-0022876Y0024132D02*
Y0024095D01*
X-0018436Y0023943D02*
X-0020471D01*
X-0019195Y0024132D02*
Y0021774D01*
X-0018436Y0023801D02*
X-0019509D01*
X-0023329Y0023937D02*
X-0023433D01*
X-0026047Y0021394D02*
X-0026416D01*
X-0022769Y0024095D02*
X-0023329D01*
X-0025940Y0023801D02*
X-0026416D01*
X-0025676Y0022385D02*
X-0026416D01*
X-0022168Y0024132D02*
Y0024095D01*
X-0018436Y0019129D02*
X-0018805D01*
X-0021513Y0017750D02*
X-0021592D01*
X-0020804Y0018694D02*
X-0021040D01*
Y0018846D02*
X-0024328D01*
X-0021040Y0018704D02*
X-0024328D01*
X-0021036Y0022381D02*
Y0017142D01*
X-0023329Y0024095D02*
Y0023937D01*
X-0020804Y0018562D02*
X-0021513D01*
X-0020804Y0018694D02*
Y0017374D01*
X-0026069Y0018138D02*
X-0026416D01*
X-0022452Y0021687D02*
Y0018615D01*
X-0018624Y0017940D02*
Y0015756D01*
X-0018444Y0014881D02*
X-0018482D01*
X-0018436Y0017996D02*
X-0018631D01*
X-0019056Y0017850D02*
Y0017707D01*
X-0018436Y0016439D02*
X-0018624D01*
X-0019054Y0018745D02*
Y0018719D01*
X-0018912Y0018745D02*
Y0018719D01*
X-0018436Y0016863D02*
X-0018624D01*
X-0019110Y0017905D02*
X-0019056Y0017850D01*
X-0018444Y0013182D02*
X-0018482D01*
X-0024759Y0017951D02*
Y0017509D01*
X-0023757Y0015872D02*
X-0023791D01*
Y0016460D02*
Y0015440D01*
X-0024111Y0019088D02*
X-0024328D01*
X-0025940Y0022810D02*
X-0026416D01*
X-0023757Y0017459D02*
Y0015440D01*
X-0023492Y0017750D02*
X-0023423Y0017681D01*
X-0018482Y0015440D02*
X-0018620D01*
X-0023443Y0017750D02*
Y0017700D01*
X-0023245Y0018615D02*
X-0023481D01*
X-0023443Y0021687D02*
Y0018615D01*
X-0023301Y0021687D02*
Y0018615D01*
X-0022534Y0016722D02*
X-0023364D01*
X-0023953Y0017750D02*
Y0017737D01*
X-0024717Y0017923D02*
Y0017467D01*
X-0022452Y0024132D02*
Y0024095D01*
X-0021592Y0017750D02*
Y0017185D01*
X-0023319Y0015589D02*
X-0023364D01*
X-0023318Y0017571D02*
X-0023366D01*
X-0023353Y0015448D02*
X-0023364D01*
X-0020804Y0017374D02*
X-0021197Y0016981D01*
X-0020894Y0023145D02*
Y0023075D01*
X-0021460Y0021687D02*
Y0017185D01*
X-0021591Y0023093D02*
X-0022618D01*
X-0025940Y0023376D02*
X-0026416D01*
X-0018436Y0021960D02*
X-0021119D01*
X-0018436Y0022385D02*
X-0019561D01*
X-0018436Y0022244D02*
X-0019644D01*
X-0021745Y0023943D02*
X-0022055D01*
X-0021319Y0024132D02*
Y0023959D01*
X-0019478Y0024132D02*
Y0021742D01*
X-0021591Y0022810D02*
X-0021816D01*
X-0021177Y0023145D02*
Y0023010D01*
X-0025142Y0021376D02*
Y0021352D01*
X-0021744Y0024132D02*
Y0022738D01*
X-0022168Y0023281D02*
Y0022917D01*
X-0021602Y0023145D02*
Y0022567D01*
X-0021591Y0022951D02*
X-0022654D01*
X-0021670Y0021687D02*
X-0021907D01*
X-0021591Y0023145D02*
X-0021745D01*
X-0024858Y0022697D02*
Y0022595D01*
X-0026069Y0018279D02*
X-0026416D01*
X-0024575Y0024132D02*
Y0024033D01*
X-0024292Y0022225D02*
Y0022186D01*
X-0026069Y0016297D02*
X-0026416D01*
X-0026069Y0018846D02*
X-0026416D01*
X-0026069Y0021304D02*
Y0015885D01*
X-0026133Y0024132D02*
Y0015821D01*
X-0025708Y0022395D02*
Y0021746D01*
X-0026069Y0020686D02*
X-0026416D01*
X-0026069Y0016155D02*
X-0026416D01*
X-0023726Y0021841D02*
Y0018615D01*
X-0026069Y0019129D02*
X-0026416D01*
X-0022452Y0023281D02*
Y0022917D01*
X-0022457Y0021687D02*
X-0022694D01*
X-0024757Y0022697D02*
X-0026010Y0021444D01*
X-0024927Y0022527D02*
X-0025297D01*
X-0021591Y0022668D02*
X-0021674D01*
X-0021040Y0021111D02*
X-0024111D01*
X-0025425Y0021093D02*
Y0021069D01*
X-0022851Y0021687D02*
X-0023088D01*
X-0020186Y0022280D02*
Y0021617D01*
X-0018436Y0018846D02*
X-0018805D01*
X-0020288Y0021536D02*
X-0024111D01*
X-0025850Y0024132D02*
Y0024033D01*
X-0026069Y0016439D02*
X-0026416D01*
X-0025708Y0024132D02*
Y0024033D01*
X-0025283Y0024132D02*
Y0024033D01*
X-0019559Y0021677D02*
X-0024840D01*
X-0020469Y0024132D02*
Y0021354D01*
X-0025210Y0022244D02*
X-0026416D01*
X-0024858Y0021659D02*
Y0021607D01*
X-0024955Y0023576D02*
Y0023240D01*
X-0024920Y0023801D02*
X-0025099D01*
X-0024920Y0023518D02*
X-0024955D01*
X-0025236Y0024033D02*
Y0023919D01*
X-0025566Y0024132D02*
Y0024033D01*
X-0025940Y0023283D02*
Y0023072D01*
Y0023447D02*
Y0023283D01*
X-0024858Y0023447D02*
Y0023283D01*
X-0024757Y0022697D02*
X-0024920D01*
X-0025000Y0023115D02*
Y0022454D01*
X-0024359Y0017147D02*
X-0024396D01*
X-0021119Y0022410D02*
Y0021687D01*
X-0020045Y0021222D02*
Y0021174D01*
X-0025013Y0023101D02*
X-0025236Y0022878D01*
X-0026069Y0017147D02*
X-0026416D01*
X-0019337Y0021084D02*
Y0020786D01*
X-0026069Y0021252D02*
X-0026416D01*
X-0019195Y0021098D02*
Y0020645D01*
X-0018436Y0018987D02*
X-0018805D01*
X-0021177Y0024132D02*
Y0023959D01*
X-0019448Y0019559D02*
X-0019619D01*
X-0019621Y0020403D02*
X-0020174D01*
X-0019448Y0019695D02*
X-0019679D01*
X-0018436Y0020403D02*
X-0018988D01*
X-0024920Y0023093D02*
X-0025021D01*
X-0024389Y0023376D02*
X-0024955D01*
X-0018436Y0022102D02*
X-0021119D01*
X-0019620Y0021239D02*
Y0021070D01*
X-0025023Y0021471D02*
X-0025479Y0021015D01*
X-0019762Y0020545D02*
X-0020174D01*
X-0019448Y0020230D02*
Y0019559D01*
X-0019654Y0021104D02*
X-0019045Y0020495D01*
X-0018436Y0020545D02*
X-0019095D01*
X-0018436Y0020120D02*
X-0018976D01*
X-0019478Y0021130D02*
Y0020928D01*
X-0025425Y0022414D02*
Y0022029D01*
X-0021173Y0017005D02*
X-0021209D01*
X-0026069Y0018987D02*
X-0026416D01*
X-0026069Y0017005D02*
X-0026416D01*
X-0024292Y0022052D02*
Y0021607D01*
X-0018436Y0021819D02*
X-0021119D01*
X-0025142Y0024132D02*
Y0023844D01*
X-0026069Y0018562D02*
X-0026416D01*
X-0021040Y0019088D02*
Y0018694D01*
X-0026069Y0019837D02*
X-0026416D01*
X-0019822Y0021174D02*
X-0020093D01*
X-0019920Y0020702D02*
X-0020174D01*
X-0026069Y0018704D02*
X-0026416D01*
X-0018444Y0015306D02*
X-0018482D01*
X-0024247Y0023376D02*
X-0024366D01*
X-0018444Y0013890D02*
X-0018571D01*
X-0021513Y0021687D02*
X-0021670D01*
X-0022064Y0018615D02*
X-0022300D01*
X-0021885Y0021687D02*
Y0018615D01*
X-0019903Y0022134D02*
Y0021633D01*
X-0023353Y0015480D02*
Y0015440D01*
X-0023584Y0021687D02*
Y0018615D01*
X-0024465Y0017430D02*
X-0024680D01*
X-0023757Y0015440D02*
X-0023791D01*
X-0023867Y0021774D02*
Y0018615D01*
X-0021040Y0019978D02*
X-0024111D01*
X-0024553Y0023283D02*
X-0024920D01*
X-0023291Y0017430D02*
X-0023364D01*
X-0020471Y0023145D02*
X-0021031D01*
X-0020611Y0024132D02*
Y0023959D01*
X-0020753Y0024132D02*
Y0023959D01*
X-0019509Y0023921D02*
Y0023361D01*
X-0018436Y0021677D02*
X-0019041D01*
X-0019620Y0024132D02*
Y0023921D01*
X-0019761Y0024132D02*
Y0023921D01*
X-0019903Y0024132D02*
Y0023921D01*
X-0024858Y0024132D02*
Y0024033D01*
X-0022615Y0023281D02*
X-0022663D01*
X-0018436Y0023659D02*
X-0019509D01*
X-0018436Y0018704D02*
X-0018805D01*
X-0018444Y0013324D02*
X-0018482D01*
X-0019195Y0018745D02*
Y0018719D01*
X-0019337Y0018745D02*
Y0018719D01*
X-0019478Y0018745D02*
Y0018719D01*
X-0018436Y0018421D02*
X-0018805D01*
X-0020429Y0021394D02*
X-0024111D01*
X-0019620Y0020402D02*
Y0017707D01*
X-0019054Y0024132D02*
Y0021690D01*
X-0018436Y0019553D02*
X-0018805D01*
X-0018436Y0019412D02*
X-0018805D01*
X-0018436Y0019270D02*
X-0018805D01*
X-0018436Y0017571D02*
X-0018624D01*
X-0018436Y0017430D02*
X-0018624D01*
X-0018436Y0017288D02*
X-0018624D01*
X-0019679Y0019708D02*
Y0017707D01*
X-0022310Y0024132D02*
Y0024095D01*
X-0021036Y0024132D02*
Y0023959D01*
X-0021460Y0024132D02*
Y0023959D01*
X-0023757Y0017147D02*
X-0023865D01*
X-0025176Y0023878D02*
X-0025013Y0023715D01*
X-0024920Y0022951D02*
X-0025162D01*
X-0023159Y0021687D02*
Y0018615D01*
X-0024292Y0017095D02*
Y0017042D01*
X-0025142Y0022972D02*
Y0022312D01*
X-0022593Y0023281D02*
Y0022917D01*
X-0025937Y0022668D02*
X-0026416D01*
X-0018436Y0020969D02*
X-0019520D01*
X-0021745Y0023801D02*
X-0022055D01*
X-0018436Y0022527D02*
X-0019548D01*
X-0026069Y0017430D02*
X-0026416D01*
X-0018436Y0017005D02*
X-0018624D01*
X-0019619Y0019412D02*
X-0019679D01*
X-0025425Y0024132D02*
Y0024033D01*
X-0018436Y0018279D02*
X-0018805D01*
X-0021040Y0019639D02*
Y0019482D01*
X-0018444Y0012616D02*
X-0018482D01*
X-0018805Y0018719D02*
Y0018210D01*
X-0019054Y0017848D02*
Y0017707D01*
X-0018444Y0013749D02*
X-0018475D01*
X-0018444Y0015164D02*
X-0018482D01*
X-0024009Y0017061D02*
Y0016759D01*
X-0024111Y0019875D02*
Y0019639D01*
X-0021040Y0019695D02*
X-0024111D01*
X-0019761Y0021239D02*
Y0021166D01*
X-0024977Y0021541D02*
X-0025479Y0021038D01*
X-0021040Y0019837D02*
X-0024111D01*
X-0021040Y0019129D02*
X-0024111D01*
Y0020269D02*
Y0020032D01*
X-0023285Y0017713D02*
X-0023455D01*
X-0021040Y0020120D02*
X-0024111D01*
X-0021040Y0019553D02*
X-0024111D01*
X-0024759Y0017509D02*
X-0023849Y0016599D01*
G01X-0020216Y0022647D02*
G03X-0020254Y0022488I0000316J0000159D01*
G01X-0018482Y0013444D02*
G03X-0018448Y0013604I0000359J0000160D01*
G01X-0022964Y0017210D02*
G03X-0022929Y0017212I0000000J0000354D01*
G01X-0023265Y0017750D02*
G03X-0023318Y0017564I0000301J0000186D01*
G01X-0023953Y0017737D02*
G03X-0023952Y0017716I0000196J0000000D01*
G03X-0024112Y0017754I0000160J0000316D01*
G01X-0023945Y0021765D02*
G03X-0023650Y0021923I0000000J0000354D01*
G01X-0021597Y0022552D02*
G03X-0021649Y0022643I0000191J0000048D01*
G01X-0021119Y0022410D02*
G03X-0020964Y0022374I0000155J0000318D01*
G01X-0018943Y0014011D02*
G03X-0018841Y0013998I0000102J0000380D01*
G01X-0020254Y0022488D02*
G03X-0019900Y0022134I0000354J0000000D01*
G03X-0019546Y0022488I0000000J0000354D01*
G03X-0019583Y0022647I0000354J0000000D01*
G01X-0019300Y0021082D02*
G03X-0018946Y0021436I0000000J0000354D01*
G03X-0019300Y0021790I0000354J0000000D01*
G01X-0019594Y0021239D02*
G03X-0019300Y0021082I0000294J0000197D01*
G01X-0020964Y0022374D02*
G03X-0020610Y0022728I0000000J0000354D01*
G03X-0020964Y0023082I0000354J0000000D01*
G01X-0025940Y0022697D02*
G03X-0025588Y0022375I0000352J0000031D01*
G01X-0024466Y0017400D02*
G03X-0024112Y0017046I0000354J0000000D01*
G03X-0023758Y0017400I0000000J0000354D01*
G01X-0024112Y0017754D02*
G03X-0024466Y0017400I0000000J0000354D01*
G01X-0024544Y0017878D02*
G03X-0024190Y0018232I0000000J0000354D01*
G03X-0024328Y0018512I0000354J0000000D01*
G01X-0024299Y0022119D02*
G03X-0023945Y0021765I0000354J0000000D01*
G01X-0023318Y0017564D02*
G03X-0022964Y0017210I0000354J0000000D01*
G01X-0022930Y0017196D02*
G03X-0022576Y0016842I0000354J0000000D01*
G01X-0022534Y0016736D02*
G03X-0022180Y0016382I0000354J0000000D01*
G03X-0022114Y0016388I0000000J0000354D01*
G01X-0021197Y0016981D02*
G03X-0021520Y0017190I0000323J0000145D01*
G01X-0025588Y0022374D02*
G03X-0025235Y0022697I0000000J0000354D01*
G01X-0021520Y0017190D02*
G03X-0021589Y0017183I0000000J0000354D01*
G01X-0018841Y0013998D02*
G03X-0018448Y0014391I0000000J0000393D01*
G03X-0018482Y0014551I0000393J0000000D01*
G01X-0018448Y0013604D02*
G03X-0018841Y0013997I0000393J0000000D01*
G03X-0018920Y0013989I0000000J0000393D01*
G01X-0023953Y0017737D02*
G03X-0023952Y0017716I0000196J0000000D01*
G01X-0020964Y0023082D02*
G03X-0021198Y0022994I0000000J0000354D01*
G01X-0022596Y0016237D02*
G03X-0022735Y0016179I0000000J0000197D01*
G01X-0019679Y0019708D02*
G03X-0019737Y0019847I0000197J0000000D01*
G01X-0022674Y0022917D02*
G03X-0022618Y0023108I0000298J0000191D01*
G01X-0023295Y0015619D02*
G03X-0023353Y0015480I0000139J0000139D01*
G01X-0022596Y0016237D02*
G03X-0022735Y0016179I0000000J0000197D01*
G01X-0024378Y0023377D02*
G03X-0024517Y0023319I0000000J0000197D01*
G01X-0024977Y0021505D02*
G03X-0025023Y0021471I0000093J0000173D01*
G01X-0024977Y0021505D02*
G03X-0025023Y0021471I0000093J0000173D01*
G01X-0020109Y0021633D02*
G03X-0020248Y0021575I0000000J0000197D01*
G01X-0019300Y0021790D02*
G03X-0019594Y0021633I0000000J0000354D01*
G01X-0024759Y0017951D02*
G03X-0024544Y0017878I0000215J0000281D01*
G01X-0023758Y0017400D02*
G03X-0023764Y0017466I0000354J0000000D01*
G01X-0018624Y0017940D02*
G03X-0018687Y0018093I0000216J0000000D01*
G01X-0023364Y0017540D02*
G03X-0023421Y0017679I0000197J0000000D01*
G01X-0023791Y0016460D02*
G03X-0023849Y0016599I0000197J0000000D01*
G01X-0025234Y0022728D02*
G03X-0025236Y0022765I0000354J0000000D01*
G01X-0025940D02*
G03X-0025942Y0022728I0000352J0000037D01*
G01X-0019655Y0021105D02*
G03X-0019822Y0021174I0000167J0000167D01*
G01X-0021597Y0022552D02*
G03X-0021649Y0022643I0000191J0000048D01*
G01X-0024277Y0022240D02*
G03X-0024298Y0022119I0000332J0000121D01*
G01X-0021865Y0022859D02*
G03X-0022004Y0022917I0000139J0000139D01*
G01X-0026011Y0021443D02*
G03X-0026069Y0021304I0000139J0000139D01*
G01X-0022576Y0016842D02*
G03X-0022516Y0016847I0000000J0000354D01*
G01X-0026011Y0021443D02*
G03X-0026069Y0021304I0000139J0000139D01*
G01X-0022114Y0016376D02*
G03X-0022085Y0016237I0000354J0000000D01*
G01X-0024955Y0023576D02*
G03X-0025013Y0023715I0000197J0000000D01*
G01X-0025177Y0023879D02*
G03X-0025236Y0023919I0000139J0000139D01*
G01X-0025177Y0023879D02*
G03X-0025236Y0023919I0000139J0000139D01*
G01X-0025013Y0023101D02*
G03X-0024955Y0023240I0000139J0000139D01*
G01X-0019655Y0021105D02*
G03X-0019822Y0021174I0000167J0000167D01*
G01X-0022114Y0016388D02*
G03X-0022114Y0016376I0000354J0000012D01*
G01X-0022516Y0016847D02*
G03X-0022534Y0016736I0000336J0000111D01*
G01X-0022930Y0017212D02*
G03X-0022930Y0017196I0000354J0000016D01*
G01X-0018976Y0020328D02*
G03X-0019045Y0020495I0000236J0000000D01*
G01X-0022618Y0023108D02*
G03X-0022663Y0023281I0000354J0000000D01*
G01X-0021865Y0022859D02*
G03X-0022004Y0022917I0000139J0000139D01*
G54D20*
G01X-0022026Y0023688D02*
X-0022412D01*
X-0024382Y0017670D02*
X-0024112Y0017400D01*
X-0023841Y0017129D02*
X-0024112Y0017400D01*
X-0025969Y0023365D02*
X-0025588D01*
X-0023363Y0018644D02*
Y0018182D01*
Y0017721D02*
Y0018182D01*
X-0024083Y0019757D02*
X-0024544D01*
X-0022969Y0021658D02*
Y0022119D01*
X-0022182Y0021658D02*
Y0022119D01*
X-0021068Y0020545D02*
X-0020607D01*
X-0020146D02*
X-0020607D01*
X-0020828Y0023988D02*
Y0023552D01*
Y0023116D02*
Y0023552D01*
X-0020442D02*
X-0020828D01*
X-0020352Y0023564D02*
X-0019916D01*
X-0019480D02*
X-0019916D01*
Y0023950D02*
Y0023564D01*
X-0019424Y0017736D02*
Y0017300D01*
X-0022412Y0023252D02*
Y0023688D01*
G54D21*
G01X-0024544Y0020151D02*
X-0024809D01*
X-0024956Y0020004D01*
Y0017428D01*
X-0023988Y0016460D01*
Y0013969D01*
X-0024353Y0013604D01*
X-0021394Y0022119D02*
Y0022558D01*
Y0023546D01*
X-0021388Y0023552D01*
X-0021788Y0022119D02*
Y0022504D01*
X-0022004Y0022720D01*
X-0024456D01*
X-0025872Y0021304D01*
Y0015804D01*
X-0026304Y0015372D01*
Y0014544D01*
X-0026151Y0014391D01*
X-0025928D01*
Y0013604D02*
X-0025496Y0014036D01*
Y0015588D01*
X-0025676Y0015768D01*
Y0021120D01*
X-0024264Y0022532D01*
X-0022668D01*
X-0022575Y0022439D01*
Y0022119D01*
X-0025588Y0023740D02*
X-0025316D01*
X-0025152Y0023576D01*
Y0023240D01*
X-0025402Y0022990D01*
X-0025588D01*
X-0025220Y0016400D02*
X-0025504Y0016684D01*
Y0020712D01*
X-0024884Y0021332D01*
X-0024544D01*
X-0019300Y0021436D02*
X-0020109D01*
X-0020607Y0020938D01*
X-0025923Y0014988D02*
Y0014397D01*
X-0025928Y0014391D01*
Y0013604D02*
Y0013025D01*
X-0025923Y0013019D01*
X-0020607Y0019363D02*
X-0020291D01*
X-0020212Y0019284D01*
Y0017232D01*
X-0021024Y0016420D01*
X-0023840Y0023740D02*
X-0023024D01*
X-0022972Y0023688D01*
X-0021760Y0016376D02*
X-0021524D01*
X-0020607Y0017293D01*
Y0018970D01*
X-0022182Y0018182D02*
Y0016738D01*
X-0022180Y0016736D01*
X-0021991Y0013604D02*
X-0021986Y0013599D01*
Y0013019D01*
X-0023560Y0014988D02*
Y0017540D01*
X-0023757Y0017737D01*
Y0018182D01*
X-0021788D02*
Y0017104D01*
X-0021520Y0016836D01*
X-0025588Y0022990D02*
Y0022728D01*
X-0023560Y0014988D02*
Y0014397D01*
X-0023566Y0014391D01*
X-0022778Y0013604D02*
X-0023156Y0013982D01*
Y0015480D01*
X-0022596Y0016040D01*
X-0020868D01*
X-0020048Y0016860D01*
Y0019556D01*
X-0020249Y0019757D01*
X-0020607D01*
X-0023566Y0013604D02*
X-0023560Y0013599D01*
Y0013019D01*
X-0024544Y0020545D02*
X-0024851D01*
X-0025144Y0020252D01*
Y0017292D01*
X-0024348Y0016496D01*
Y0014988D01*
X-0022575Y0018182D02*
Y0017196D01*
X-0022576D01*
X-0024544Y0020938D02*
X-0024850D01*
X-0025332Y0020456D01*
Y0017144D01*
X-0024680Y0016492D01*
Y0015444D01*
X-0025135Y0014988D01*
X-0020411D02*
Y0014397D01*
X-0020416Y0014391D01*
X-0023840Y0023180D02*
X-0024378D01*
X-0024568Y0022990D01*
X-0023840Y0023180D02*
X-0019916Y0023004D02*
X-0019900Y0022988D01*
Y0022488D01*
X-0022969Y0018182D02*
Y0017569D01*
X-0022964Y0017564D01*
X-0021394Y0022119D02*
Y0022558D01*
X-0021224Y0022728D01*
X-0020964D01*
X-0020416Y0013604D02*
X-0020411Y0013599D01*
Y0013019D01*
X-0023363Y0022119D02*
X-0023945D01*
X-0021204Y0013604D02*
X-0021198Y0013599D01*
Y0013019D01*
X-0022773Y0014988D02*
Y0015519D01*
X-0022412Y0015880D01*
X-0020736D01*
X-0019876Y0016740D01*
Y0019708D01*
X-0020319Y0020151D01*
X-0020607D01*
X-0024353Y0013604D02*
X-0024348Y0013599D01*
Y0013019D01*
X-0022778Y0013604D02*
X-0022773Y0013599D01*
Y0013019D01*
X-0022972Y0023688D02*
Y0023108D01*
X-0025141Y0013604D02*
X-0025135Y0013599D01*
Y0013019D01*
X-0021986Y0014988D02*
Y0015502D01*
X-0021768Y0015720D01*
X-0020440D01*
X-0023840Y0023740D02*
X-0024568D01*
X-0021986Y0014988D02*
Y0014397D01*
X-0021991Y0014391D01*
X-0022773Y0014988D02*
Y0014397D01*
X-0022778Y0014391D01*
X-0021198Y0014988D02*
X-0021204Y0014983D01*
Y0014391D01*
X-0024348Y0014988D02*
X-0024353Y0014983D01*
Y0014391D01*
X-0025135Y0014988D02*
Y0014397D01*
X-0025141Y0014391D01*
G54D22*
G01X-0024544Y0019363D02*
Y0018232D01*
X-0018836Y0014988D02*
Y0015752D01*
X-0018840Y0015756D01*
Y0017940D01*
X-0019212Y0018312D01*
X-0018841Y0013604D02*
X-0019240Y0014003D01*
Y0016276D01*
X-0019424Y0016460D01*
X-0018841Y0013604D02*
X-0018836Y0013599D01*
Y0013019D01*
Y0014988D02*
Y0014397D01*
X-0018841Y0014391D01*
G54D23*
G01X-0019623Y0014988D02*
X-0019629Y0014983D01*
Y0014391D01*
Y0013604D02*
X-0019623Y0013599D01*
Y0013019D01*
G54D10*
X-0020828Y0023552D03*
X-0021388D03*
X-0022972Y0023688D03*
X-0022412D03*
G54D11*
X-0019212Y0019152D03*
Y0018312D03*
X-0019424Y0016460D03*
Y0017300D03*
G54D12*
X-0019916Y0023564D03*
Y0023004D03*
X-0023840Y0023180D03*
Y0023740D03*
G54D13*
X-0025923Y0013019D03*
Y0014988D03*
X-0025135Y0013019D03*
Y0014988D03*
X-0024348Y0013019D03*
Y0014988D03*
X-0023560Y0013019D03*
Y0014988D03*
X-0022773Y0013019D03*
Y0014988D03*
X-0021986Y0013019D03*
Y0014988D03*
X-0021198Y0013019D03*
Y0014988D03*
X-0020411Y0013019D03*
Y0014988D03*
X-0019623Y0013019D03*
Y0014988D03*
X-0018836Y0013019D03*
Y0014988D03*
G54D14*
X-0021394Y0022119D03*
X-0021788D03*
X-0022182D03*
X-0022575D03*
X-0022969D03*
X-0023363D03*
X-0023757Y0018182D03*
X-0023363D03*
X-0022969D03*
X-0022575D03*
X-0022182D03*
X-0021788D03*
G54D15*
X-0020607Y0018970D03*
Y0019363D03*
Y0019757D03*
Y0020151D03*
Y0020545D03*
Y0020938D03*
X-0024544Y0021332D03*
Y0020938D03*
Y0020545D03*
Y0020151D03*
Y0019757D03*
Y0019363D03*
G54D16*
X-0025928Y0013604D03*
Y0014391D03*
X-0025141Y0013604D03*
Y0014391D03*
X-0024353Y0013604D03*
Y0014391D03*
X-0023566Y0013604D03*
Y0014391D03*
X-0022778Y0013604D03*
Y0014391D03*
X-0021991Y0013604D03*
Y0014391D03*
X-0021204Y0013604D03*
Y0014391D03*
X-0020416Y0013604D03*
Y0014391D03*
X-0019629Y0013604D03*
Y0014391D03*
X-0018841Y0013604D03*
Y0014391D03*
G54D17*
X-0025588Y0023740D03*
Y0023365D03*
Y0022990D03*
X-0024568Y0023740D03*
Y0022990D03*
G54D18*
X-0019900Y0022488D03*
X-0023840Y0023180D03*
X-0019300Y0021436D03*
X-0020964Y0022728D03*
X-0025588D03*
X-0024112Y0017400D03*
X-0022972Y0023108D03*
X-0024544Y0018232D03*
X-0023945Y0022119D03*
X-0022964Y0017564D03*
X-0022576Y0017196D03*
X-0022180Y0016736D03*
X-0021520Y0016836D03*
X-0020440Y0015720D03*
X-0021024Y0016420D03*
X-0021760Y0016376D03*
X-0025220Y0016400D03*
M02*
