999
dxflib 2.0.4.8
  0
SECTION
  2
HEADER
  9
$ACADVER
  1
AC1015
  9
$HANDSEED
  5
FFFF
  9
$DIMADEC
 70
2
  9
$GRIDUNIT
 10
0.000001
 20
0.000001
  9
$DIMASZ
 40
0.2
  9
$SNAPSTYLE
 70
0
  9
$DIMGAP
 40
0.1
  9
$LIMMIN
 10
2.9727666666666668
 20
2.374833333333334
  9
$LUNITS
 70
2
  9
$AUPREC
 70
2
  9
$SPLINESEGS
 70
8
  9
$FILLMODE
 70
1
  9
$INSUNITS
 70
1
  9
$DIMEXO
 40
0.1
  9
$LIMMAX
 10
10.3149666666666704
 20
7.8146333333333349
  9
$DIMLUNIT
 70
2
  9
$GRIDMODE
 70
1
  9
$DIMTXT
 40
0.2
  9
$LUPREC
 70
4
  9
$SNAPMODE
 70
1
  9
$CECOLOR
 62
256
  9
$DIMSTYLE
  2
Standard
  9
$PLIMMIN
 10
0.0
 20
0.0
  9
$PLIMMAX
 10
8.2677165354330722
 20
11.6929133858267722
  9
$DIMEXE
 40
0.5
  9
$PINSBASE
 10
-2.6812815787652458
 20
5.663775576917045
 30
0.0
  9
$SNAPUNIT
 10
0.0002
 20
0.0002
 30
0.0
  9
$DIMAUNIT
 70
0
  9
$AUNITS
 70
0
  0
ENDSEC
  0
SECTION
  2
TABLES
  0
TABLE
  2
VPORT
  5
8
100
AcDbSymbolTable
 70
1
  0
VPORT
  5
30
100
AcDbSymbolTableRecord
100
AcDbViewportTableRecord
  2
*Active
 70
0
 10
0.0
 20
0.0
 11
1.0
 21
1.0
 12
286.3055555555554861
 22
148.5
 13
0.0
 23
0.0
 14
10.0
 24
10.0
 15
10.0
 25
10.0
 16
0.0
 26
0.0
 36
1.0
 17
0.0
 27
0.0
 37
0.0
 40
297.0
 41
1.92798353909465
 42
50.0
 43
0.0
 44
0.0
 50
0.0
 51
0.0
 71
0
 72
100
 73
1
 74
3
 75
1
 76
1
 77
0
 78
0
281
0
 65
1
110
0.0
120
0.0
130
0.0
111
1.0
121
0.0
131
0.0
112
0.0
122
1.0
132
0.0
 79
0
146
0.0
  0
ENDTAB
  0
TABLE
  2
LTYPE
  5
5
100
AcDbSymbolTable
 70
21
  0
LTYPE
  5
14
100
AcDbSymbolTableRecord
100
AcDbLinetypeTableRecord
  2
ByBlock
 70
0
  3

 72
65
 73
0
 40
0.0
  0
LTYPE
  5
15
100
AcDbSymbolTableRecord
100
AcDbLinetypeTableRecord
  2
ByLayer
 70
0
  3

 72
65
 73
0
 40
0.0
  0
LTYPE
  5
16
100
AcDbSymbolTableRecord
100
AcDbLinetypeTableRecord
  2
CONTINUOUS
 70
0
  3
Solid line
 72
65
 73
0
 40
0.0
  0
LTYPE
  5
31
100
AcDbSymbolTableRecord
100
AcDbLinetypeTableRecord
  2
DOT
 70
0
  3
Dot . . . . . . . . . . . . . . . . . . . . . .
 72
65
 73
2
 40
6.3499999999999996
 49
0.0
 74
0
 49
-6.3499999999999996
 74
0
  0
LTYPE
  5
32
100
AcDbSymbolTableRecord
100
AcDbLinetypeTableRecord
  2
DOT2
 70
0
  3
Dot (.5x) .....................................
 72
65
 73
2
 40
3.1749999999999998
 49
0.0
 74
0
 49
-3.1749999999999998
 74
0
  0
LTYPE
  5
33
100
AcDbSymbolTableRecord
100
AcDbLinetypeTableRecord
  2
DOTX2
 70
0
  3
Dot (2x) .  .  .  .  .  .  .  .  .  .  .  .  .
 72
65
 73
2
 40
12.6999999999999993
 49
0.0
 74
0
 49
-12.6999999999999993
 74
0
  0
LTYPE
  5
34
100
AcDbSymbolTableRecord
100
AcDbLinetypeTableRecord
  2
DASHED
 70
0
  3
Dashed __ __ __ __ __ __ __ __ __ __ __ __ __ _
 72
65
 73
2
 40
19.0500000000000007
 49
12.6999999999999993
 74
0
 49
-6.3499999999999996
 74
0
  0
LTYPE
  5
35
100
AcDbSymbolTableRecord
100
AcDbLinetypeTableRecord
  2
DASHED2
 70
0
  3
Dashed (.5x) _ _ _ _ _ _ _ _ _ _ _ _ _ _ _ _ _
 72
65
 73
2
 40
9.5250000000000004
 49
6.3499999999999996
 74
0
 49
-3.1749999999999998
 74
0
  0
LTYPE
  5
36
100
AcDbSymbolTableRecord
100
AcDbLinetypeTableRecord
  2
DASHEDX2
 70
0
  3
Dashed (2x) ____  ____  ____  ____  ____  ___
 72
65
 73
2
 40
38.1000000000000014
 49
25.3999999999999986
 74
0
 49
-12.6999999999999993
 74
0
  0
LTYPE
  5
37
100
AcDbSymbolTableRecord
100
AcDbLinetypeTableRecord
  2
DASHDOT
 70
0
  3
Dash dot __ . __ . __ . __ . __ . __ . __ . __
 72
65
 73
4
 40
25.3999999999999986
 49
12.6999999999999993
 74
0
 49
-6.3499999999999996
 74
0
 49
0.0
 74
0
 49
-6.3499999999999996
 74
0
  0
LTYPE
  5
38
100
AcDbSymbolTableRecord
100
AcDbLinetypeTableRecord
  2
DASHDOT2
 70
0
  3
Dash dot (.5x) _._._._._._._._._._._._._._._.
 72
65
 73
4
 40
12.6999999999999993
 49
6.3499999999999996
 74
0
 49
-3.1749999999999998
 74
0
 49
0.0
 74
0
 49
-3.1749999999999998
 74
0
  0
LTYPE
  5
39
100
AcDbSymbolTableRecord
100
AcDbLinetypeTableRecord
  2
DASHDOTX2
 70
0
  3
Dash dot (2x) ____  .  ____  .  ____  .  ___
 72
65
 73
4
 40
50.7999999999999972
 49
25.3999999999999986
 74
0
 49
-12.6999999999999993
 74
0
 49
0.0
 74
0
 49
-12.6999999999999993
 74
0
  0
LTYPE
  5
3A
100
AcDbSymbolTableRecord
100
AcDbLinetypeTableRecord
  2
DIVIDE
 70
0
  3
Divide ____ . . ____ . . ____ . . ____ . . ____
 72
65
 73
6
 40
31.75
 49
12.6999999999999993
 74
0
 49
-6.3499999999999996
 74
0
 49
0.0
 74
0
 49
-6.3499999999999996
 74
0
 49
0.0
 74
0
 49
-6.3499999999999996
 74
0
  0
LTYPE
  5
3B
100
AcDbSymbolTableRecord
100
AcDbLinetypeTableRecord
  2
DIVIDE2
 70
0
  3
Divide (.5x) __..__..__..__..__..__..__..__.._
 72
65
 73
6
 40
15.875
 49
6.3499999999999996
 74
0
 49
-3.1749999999999998
 74
0
 49
0.0
 74
0
 49
-3.1749999999999998
 74
0
 49
0.0
 74
0
 49
-3.1749999999999998
 74
0
  0
LTYPE
  5
3C
100
AcDbSymbolTableRecord
100
AcDbLinetypeTableRecord
  2
DIVIDEX2
 70
0
  3
Divide (2x) ________  .  .  ________  .  .  _
 72
65
 73
6
 40
63.5
 49
25.3999999999999986
 74
0
 49
-12.6999999999999993
 74
0
 49
0.0
 74
0
 49
-12.6999999999999993
 74
0
 49
0.0
 74
0
 49
-12.6999999999999993
 74
0
  0
LTYPE
  5
3D
100
AcDbSymbolTableRecord
100
AcDbLinetypeTableRecord
  2
CENTER
 70
0
  3
Center ____ _ ____ _ ____ _ ____ _ ____ _ ____
 72
65
 73
4
 40
50.7999999999999972
 49
31.75
 74
0
 49
-6.3499999999999996
 74
0
 49
6.3499999999999996
 74
0
 49
-6.3499999999999996
 74
0
  0
LTYPE
  5
3E
100
AcDbSymbolTableRecord
100
AcDbLinetypeTableRecord
  2
CENTER2
 70
0
  3
Center (.5x) ___ _ ___ _ ___ _ ___ _ ___ _ ___
 72
65
 73
4
 40
28.5749999999999993
 49
19.0500000000000007
 74
0
 49
-3.1749999999999998
 74
0
 49
3.1749999999999998
 74
0
 49
-3.1749999999999998
 74
0
  0
LTYPE
  5
3F
100
AcDbSymbolTableRecord
100
AcDbLinetypeTableRecord
  2
CENTERX2
 70
0
  3
Center (2x) ________  __  ________  __  _____
 72
65
 73
4
 40
101.5999999999999943
 49
63.5
 74
0
 49
-12.6999999999999993
 74
0
 49
12.6999999999999993
 74
0
 49
-12.6999999999999993
 74
0
  0
LTYPE
  5
40
100
AcDbSymbolTableRecord
100
AcDbLinetypeTableRecord
  2
BORDER
 70
0
  3
Border __ __ . __ __ . __ __ . __ __ . __ __ .
 72
65
 73
6
 40
44.4500000000000028
 49
12.6999999999999993
 74
0
 49
-6.3499999999999996
 74
0
 49
12.6999999999999993
 74
0
 49
-6.3499999999999996
 74
0
 49
0.0
 74
0
 49
-6.3499999999999996
 74
0
  0
LTYPE
  5
41
100
AcDbSymbolTableRecord
100
AcDbLinetypeTableRecord
  2
BORDER2
 70
0
  3
Border (.5x) __.__.__.__.__.__.__.__.__.__.__.
 72
65
 73
6
 40
22.2250000000000014
 49
6.3499999999999996
 74
0
 49
-3.1749999999999998
 74
0
 49
6.3499999999999996
 74
0
 49
-3.1749999999999998
 74
0
 49
0.0
 74
0
 49
-3.1749999999999998
 74
0
  0
LTYPE
  5
42
100
AcDbSymbolTableRecord
100
AcDbLinetypeTableRecord
  2
BORDERX2
 70
0
  3
Border (2x) ____  ____  .  ____  ____  .  ___
 72
65
 73
6
 40
88.9000000000000057
 49
25.3999999999999986
 74
0
 49
-12.6999999999999993
 74
0
 49
25.3999999999999986
 74
0
 49
-12.6999999999999993
 74
0
 49
0.0
 74
0
 49
-12.6999999999999993
 74
0
  0
ENDTAB
  0
TABLE
  2
LAYER
  5
2
100
AcDbSymbolTable
 70
2
  0
LAYER
  5
10
100
AcDbSymbolTableRecord
100
AcDbLayerTableRecord
  2
0
 70
0
 62
7
  6
CONTINUOUS
370
0
390
F
  0
LAYER
  5
43
100
AcDbSymbolTableRecord
100
AcDbLayerTableRecord
  2
SST
 70
0
 62
7
  6
ByLayer
390
F
  0
ENDTAB
  0
TABLE
  2
STYLE
  5
3
100
AcDbSymbolTable
 70
1
  0
STYLE
  5
11
100
AcDbSymbolTableRecord
100
AcDbTextStyleTableRecord
  2
Standard
 70
0
 40
0.0
 41
0.75
 50
0.0
 71
0
 42
2.5
  3
txt
  4

  0
ENDTAB
  0
TABLE
  2
VIEW
  5
6
100
AcDbSymbolTable
 70
0
  0
ENDTAB
  0
TABLE
  2
UCS
  5
7
100
AcDbSymbolTable
 70
0
  0
ENDTAB
  0
TABLE
  2
APPID
  5
9
100
AcDbSymbolTable
 70
1
  0
APPID
  5
12
100
AcDbSymbolTableRecord
100
AcDbRegAppTableRecord
  2
ACAD
 70
0
  0
ENDTAB
  0
TABLE
  2
DIMSTYLE
  5
A
100
AcDbSymbolTable
 70
1
100
AcDbDimStyleTable
 71
0
  0
DIMSTYLE
105
27
100
AcDbSymbolTableRecord
100
AcDbDimStyleTableRecord
  2
Standard
 41
0.2
 42
0.1
 43
3.75
 44
0.5
 70
0
 73
0
 74
0
 77
1
 78
8
140
0.2
141
2.5
143
0.03937007874016
147
0.1
171
3
172
1
271
2
272
2
274
3
278
44
283
0
284
8
340
11
  0
ENDTAB
  0
TABLE
  2
BLOCK_RECORD
  5
1
100
AcDbSymbolTable
 70
1
  0
BLOCK_RECORD
  5
1F
100
AcDbSymbolTableRecord
100
AcDbBlockTableRecord
  2
*Model_Space
340
22
  0
BLOCK_RECORD
  5
1B
100
AcDbSymbolTableRecord
100
AcDbBlockTableRecord
  2
*Paper_Space
340
1E
  0
BLOCK_RECORD
  5
23
100
AcDbSymbolTableRecord
100
AcDbBlockTableRecord
  2
*Paper_Space0
340
26
  0
ENDTAB
  0
ENDSEC
  0
SECTION
  2
BLOCKS
  0
BLOCK
  5
20
100
AcDbEntity
  8
0
100
AcDbBlockBegin
  2
*Model_Space
 70
0
 10
0.0
 20
0.0
 30
0.0
  3
*Model_Space
  1

  0
ENDBLK
  5
21
100
AcDbEntity
  8
0
100
AcDbBlockEnd
  0
BLOCK
  5
1C
100
AcDbEntity
 67
1
  8
0
100
AcDbBlockBegin
  2
*Paper_Space
 70
0
 10
0.0
 20
0.0
 30
0.0
  3
*Paper_Space
  1

  0
ENDBLK
  5
1D
100
AcDbEntity
 67
1
  8
0
100
AcDbBlockEnd
  0
BLOCK
  5
24
100
AcDbEntity
  8
0
100
AcDbBlockBegin
  2
*Paper_Space0
 70
0
 10
0.0
 20
0.0
 30
0.0
  3
*Paper_Space0
  1

  0
ENDBLK
  5
25
100
AcDbEntity
  8
0
100
AcDbBlockEnd
  0
ENDSEC
  0
SECTION
  2
ENTITIES
  0
LWPOLYLINE
  5
44
  8
SST
 62
256
370
-1
  6
CONTINUOUS
100
AcDbEntity
100
AcDbPolyline
 90
2
 70
1
 10
6.5563194502190818
 20
-3.5737671635502819
 42
0.9999999999999999
 10
6.5663194502190816
 20
-3.5737671635502819
 42
0.9999999999999999
  0
LWPOLYLINE
  5
45
  8
SST
 62
256
370
-1
  6
CONTINUOUS
100
AcDbEntity
100
AcDbPolyline
 90
2
 70
1
 10
6.5563194502190818
 20
-0.0347671635502818
 42
0.9999999999999999
 10
6.5663194502190816
 20
-0.0347671635502818
 42
0.9999999999999999
  0
LWPOLYLINE
  5
46
  8
SST
 62
256
370
-1
  6
CONTINUOUS
100
AcDbEntity
100
AcDbPolyline
 90
20
 70
0
 10
3.8041736323461648
 20
-0.051525398227463
 42
0.4825089345267771
 10
3.8000563365198685
 20
-3.5715632293566557
 10
3.8040563365198707
 20
-3.5715632293566548
 10
3.8040563365198707
 20
-3.0065632293566553
 10
4.0020563365198711
 20
-3.0065632293566553
 10
4.0019429207621471
 20
-3.0066045845023965
 10
6.3648463255582932
 20
-3.0066045845023845
 10
6.5523282694836809
 20
-3.0067212409291111
 10
6.5609450193359313
 20
-3.0066949018575118
 10
6.5610563365198704
 20
-3.5805632293566552
 10
6.5650563365198709
 20
-3.5805632293566552
 42
0.4911147406842462
 10
6.5650563365198709
 20
-0.041563229356655
 10
6.5610563365198704
 20
-0.041563229356655
 10
6.5610563365198704
 20
-0.6245632293566552
 10
6.366056336519871
 20
-0.6245632293566552
 10
6.3661158929533457
 20
-0.6246155836709071
 10
3.8040896492808218
 20
-0.6247823874737497
 10
3.8040260626873859
 20
-0.6247300331592314
 10
3.8040563365198707
 20
-0.6245632293566552
 10
3.8040563365198707
 20
-0.0515632293566548
  0
CIRCLE
  5
47
100
AcDbEntity
100
AcDbCircle
  8
SST
 62
256
370
-1
  6
CONTINUOUS
 10
3.9516638040686476
 20
-0.8198504189535992
 30
0.0
 40
0.0392752296884865
  0
CIRCLE
  5
48
100
AcDbEntity
100
AcDbCircle
  8
SST
 62
256
370
-1
  6
CONTINUOUS
 10
6.4051289458491585
 20
-0.7909413723217802
 30
0.0
 40
0.0394095553459364
  0
CIRCLE
  5
49
100
AcDbEntity
100
AcDbCircle
  8
SST
 62
256
370
-1
  6
CONTINUOUS
 10
6.4330236399677201
 20
-2.7816081798646293
 30
0.0
 40
0.0400677267646928
  0
LWPOLYLINE
  5
4A
  8
SST
 62
256
370
-1
  6
CONTINUOUS
100
AcDbEntity
100
AcDbPolyline
 90
2
 70
1
 10
5.5977816305443442
 20
-2.2530058012237291
 42
0.9999999999999999
 10
5.841781630544344
 20
-2.2530058012237291
 42
0.9999999999999999
  0
LWPOLYLINE
  5
4B
  8
SST
 62
256
370
-1
  6
CONTINUOUS
100
AcDbEntity
100
AcDbPolyline
 90
2
 70
1
 10
4.5357816305443448
 20
-2.2570058012237286
 42
0.9999999999999999
 10
4.7797816305443446
 20
-2.2570058012237286
 42
0.9999999999999999
  0
LWPOLYLINE
  5
4C
  8
SST
 62
256
370
-1
  6
CONTINUOUS
100
AcDbEntity
100
AcDbPolyline
 90
8
 70
0
 10
6.1747816305443441
 20
-1.4470058012237292
 10
6.1747816305443441
 20
-1.284005801223729
 10
5.961781630544345
 20
-1.284005801223729
 10
5.961781630544345
 20
-1.2210058012237288
 10
6.2367816305443444
 20
-1.2210058012237288
 10
6.2367816305443444
 20
-1.506005801223729
 10
6.1747816305443441
 20
-1.506005801223729
 10
6.1747816305443441
 20
-1.4420058012237289
  0
LWPOLYLINE
  5
4D
  8
SST
 62
256
370
-1
  6
CONTINUOUS
100
AcDbEntity
100
AcDbPolyline
 90
8
 70
0
 10
6.0117816305443439
 20
-2.3420058012237286
 10
6.1747816305443441
 20
-2.3420058012237286
 10
6.1747816305443441
 20
-2.1300058012237288
 10
6.2377816305443448
 20
-2.1300058012237288
 10
6.2377816305443448
 20
-2.4050058012237292
 10
5.9517816305443443
 20
-2.4050058012237292
 10
5.9517816305443443
 20
-2.3420058012237286
 10
6.0167816305443447
 20
-2.3420058012237286
  0
LWPOLYLINE
  5
4E
  8
SST
 62
256
370
-1
  6
CONTINUOUS
100
AcDbEntity
100
AcDbPolyline
 90
8
 70
0
 10
4.1477816305443449
 20
-2.1800058012237287
 10
4.1477816305443449
 20
-2.3430058012237289
 10
4.3607816305443441
 20
-2.3430058012237289
 10
4.3607816305443441
 20
-2.4060058012237286
 10
4.0857816305443446
 20
-2.4060058012237286
 10
4.0857816305443446
 20
-2.1200058012237291
 10
4.1477816305443449
 20
-2.1200058012237291
 10
4.1477816305443449
 20
-2.1850058012237286
  0
LWPOLYLINE
  5
4F
  8
SST
 62
256
370
-1
  6
CONTINUOUS
100
AcDbEntity
100
AcDbPolyline
 90
2
 70
1
 10
5.0667816305443445
 20
-1.3760058012237291
 42
0.9999999999999999
 10
5.3107816305443443
 20
-1.3760058012237291
 42
0.9999999999999999
  0
LWPOLYLINE
  5
50
  8
SST
 62
256
370
-1
  6
CONTINUOUS
100
AcDbEntity
100
AcDbPolyline
 90
2
 70
1
 10
5.5968888241273911
 20
-1.3718205401254067
 42
-0.9999999999999999
 10
5.8408888027699719
 20
-1.3717184498720694
 42
-0.9999999999999999
  0
LWPOLYLINE
  5
51
  8
SST
 62
256
370
-1
  6
CONTINUOUS
100
AcDbEntity
100
AcDbPolyline
 90
2
 70
1
 10
4.5348872434739693
 20
-1.3682648841192582
 42
-0.9999999999999999
 10
4.7788872221165501
 20
-1.3681627938659209
 42
-0.9999999999999999
  0
LWPOLYLINE
  5
52
  8
SST
 62
256
370
-1
  6
CONTINUOUS
100
AcDbEntity
100
AcDbPolyline
 90
8
 70
0
 10
4.1469194944419501
 20
-1.445427217618382
 10
4.146851294805483
 20
-1.282427231885837
 10
4.359851276161506
 20
-1.2823381121154842
 10
4.3598249167928103
 20
-1.219338117629901
 10
4.0848249408636725
 20
-1.2194531783662717
 10
4.0849446040294977
 20
-1.5054531533325757
 10
4.1469445986026123
 20
-1.5054272123665569
 10
4.1469174024285609
 20
-1.4404272180560338
  0
LWPOLYLINE
  5
53
  8
SST
 62
256
370
-1
  6
CONTINUOUS
100
AcDbEntity
100
AcDbPolyline
 90
2
 70
1
 10
5.0662558097543888
 20
-2.2490426351831068
 42
-0.9999999999999999
 10
5.3102557883969697
 20
-2.2489405449297695
 42
-0.9999999999999999
  0
LINE
  5
54
100
AcDbEntity
100
AcDbLine
  8
SST
 62
256
370
-1
  6
CONTINUOUS
 10
3.7794251635572236
 20
-1.2743238074550387
 30
0.0
 11
3.9946338647617927
 21
-1.2743238074550387
 31
0.0
  0
LINE
  5
55
100
AcDbEntity
100
AcDbLine
  8
SST
 62
256
370
-1
  6
CONTINUOUS
 10
3.9946338647617927
 20
-1.2743238074550387
 30
0.0
 11
3.9946338647617927
 21
-2.3432725211304741
 31
0.0
  0
LINE
  5
56
100
AcDbEntity
100
AcDbLine
  8
SST
 62
256
370
-1
  6
CONTINUOUS
 10
3.9946338647617927
 20
-2.3432725211304741
 30
0.0
 11
3.7794251635572236
 21
-2.3432725211304741
 31
0.0
  0
LINE
  5
57
100
AcDbEntity
100
AcDbLine
  8
SST
 62
256
370
-1
  6
CONTINUOUS
 10
3.7794251635572236
 20
-2.3432725211304741
 30
0.0
 11
3.7794251635572236
 21
-1.2743238074550387
 31
0.0
  0
LINE
  5
58
100
AcDbEntity
100
AcDbLine
  8
SST
 62
256
370
-1
  6
CONTINUOUS
 10
6.3264667877576901
 20
-1.2753306823664592
 30
0.0
 11
6.5416754889622588
 21
-1.2753306823664592
 31
0.0
  0
LINE
  5
59
100
AcDbEntity
100
AcDbLine
  8
SST
 62
256
370
-1
  6
CONTINUOUS
 10
6.5416754889622588
 20
-1.2753306823664592
 30
0.0
 11
6.5416754889622588
 21
-2.3442793960418946
 31
0.0
  0
LINE
  5
5A
100
AcDbEntity
100
AcDbLine
  8
SST
 62
256
370
-1
  6
CONTINUOUS
 10
6.5416754889622588
 20
-2.3442793960418946
 30
0.0
 11
6.3264667877576901
 21
-2.3442793960418946
 31
0.0
  0
LINE
  5
5B
100
AcDbEntity
100
AcDbLine
  8
SST
 62
256
370
-1
  6
CONTINUOUS
 10
6.3264667877576901
 20
-2.3442793960418946
 30
0.0
 11
6.3264667877576901
 21
-1.2753306823664592
 31
0.0
  0
LINE
  5
5C
100
AcDbEntity
100
AcDbLine
  8
SST
 62
256
370
-1
  6
CONTINUOUS
 10
10.7358747559681653
 20
-3.1426178570554852
 30
0.0
 11
10.7358747559681653
 21
-3.1426178570554852
 31
0.0
  0
CIRCLE
  5
5D
100
AcDbEntity
100
AcDbCircle
  8
0
 62
256
370
-1
  6
CONTINUOUS
 10
9.012071709703946
 20
-2.3764411961927756
 30
0.0
 40
0.0590551181102362
  0
CIRCLE
  5
5E
100
AcDbEntity
100
AcDbCircle
  8
0
 62
256
370
-1
  6
CONTINUOUS
 10
9.0120717097039442
 20
-1.68746481824002
 30
0.0
 40
0.0590551181102362
  0
CIRCLE
  5
5F
100
AcDbEntity
100
AcDbCircle
  8
0
 62
256
370
-1
  6
CONTINUOUS
 10
10.1242764341133942
 20
-2.3764411961927756
 30
0.0
 40
0.0590551181102362
  0
CIRCLE
  5
60
100
AcDbEntity
100
AcDbCircle
  8
0
 62
256
370
-1
  6
CONTINUOUS
 10
10.1242764341133942
 20
-1.6874648182400205
 30
0.0
 40
0.0590551181102362
  0
CIRCLE
  5
61
100
AcDbEntity
100
AcDbCircle
  8
0
 62
256
370
-1
  6
CONTINUOUS
 10
9.3565598986802847
 20
-2.0319530072163978
 30
0.0
 40
0.1673228346456693
  0
CIRCLE
  5
62
100
AcDbEntity
100
AcDbCircle
  8
0
 62
256
370
-1
  6
CONTINUOUS
 10
9.7797882451370164
 20
-2.0319530072163983
 30
0.0
 40
0.0841951175806459
  0
LINE
  5
63
100
AcDbEntity
100
AcDbLine
  8
SST
 62
256
370
-1
  6
CONTINUOUS
 10
10.7336888192950397
 20
-0.8358200310106793
 30
0.0
 11
10.7336888192950397
 21
-3.0246776527196575
 31
0.0
  0
CIRCLE
  5
64
100
AcDbEntity
100
AcDbCircle
  8
0
 62
256
370
-1
  6
CONTINUOUS
 10
9.7022035056780904
 20
-2.3753330414567917
 30
0.0
 40
0.0590551181102362
  0
CIRCLE
  5
65
100
AcDbEntity
100
AcDbCircle
  8
0
 62
256
370
-1
  6
CONTINUOUS
 10
9.7001975643382075
 20
-1.6863595836398471
 30
0.0
 40
0.0590551181102362
  0
CIRCLE
  5
66
100
AcDbEntity
100
AcDbCircle
  8
0
 62
256
370
-1
  6
CONTINUOUS
 10
8.5900034952021631
 20
-2.3785712039054641
 30
0.0
 40
0.0590551181102362
  0
CIRCLE
  5
67
100
AcDbEntity
100
AcDbCircle
  8
0
 62
256
370
-1
  6
CONTINUOUS
 10
8.5879975538622784
 20
-1.6895977460885181
 30
0.0
 40
0.0590551181102362
  0
CIRCLE
  5
68
100
AcDbEntity
100
AcDbCircle
  8
0
 62
256
370
-1
  6
CONTINUOUS
 10
9.3567138060997141
 20
-2.0318492832182615
 30
0.0
 40
0.1673228346456693
  0
CIRCLE
  5
69
100
AcDbEntity
100
AcDbCircle
  8
0
 62
256
370
-1
  6
CONTINUOUS
 10
8.9334872534406937
 20
-2.0330815043270487
 30
0.0
 40
0.0841951175806459
  0
LINE
  5
6A
100
AcDbEntity
100
AcDbLine
  8
SST
 62
256
370
-1
  6
CONTINUOUS
 10
7.9767139572608112
 20
-3.0247416647118754
 30
0.0
 11
10.7339754267028944
 21
-3.0247017376463607
 31
0.0
  0
LINE
  5
6B
100
AcDbEntity
100
AcDbLine
  8
SST
 62
256
370
-1
  6
CONTINUOUS
 10
7.9769870510715251
 20
-0.8358315199976003
 30
0.0
 11
10.7336888192950397
 21
-0.8358200310106793
 31
0.0
  0
LINE
  5
6C
100
AcDbEntity
100
AcDbLine
  8
SST
 62
256
370
-1
  6
CONTINUOUS
 10
7.976987051050731
 20
-3.0250931315123433
 30
0.0
 11
7.9769870510715251
 21
-0.8358315199976003
 31
0.0
  0
LWPOLYLINE
  5
6D
  8
SST
 62
256
370
-1
  6
CONTINUOUS
100
AcDbEntity
100
AcDbPolyline
 90
2
 70
1
 10
6.5708979884296612
 20
-7.6038218455861024
 42
0.9999999999999999
 10
6.580897988429661
 20
-7.6038218455861024
 42
0.9999999999999999
  0
LWPOLYLINE
  5
6E
  8
SST
 62
256
370
-1
  6
CONTINUOUS
100
AcDbEntity
100
AcDbPolyline
 90
2
 70
1
 10
6.5708979884296612
 20
-4.0648218455861027
 42
0.9999999999999999
 10
6.580897988429661
 20
-4.0648218455861027
 42
0.9999999999999999
  0
CIRCLE
  5
6F
100
AcDbEntity
100
AcDbCircle
  8
SST
 62
256
370
-1
  6
CONTINUOUS
 10
3.9662423422792266
 20
-4.8499051009894201
 30
0.0
 40
0.0392752296884865
  0
CIRCLE
  5
70
100
AcDbEntity
100
AcDbCircle
  8
SST
 62
256
370
-1
  6
CONTINUOUS
 10
6.419707484059737
 20
-4.8209960543576011
 30
0.0
 40
0.0394095553459364
  0
CIRCLE
  5
71
100
AcDbEntity
100
AcDbCircle
  8
SST
 62
256
370
-1
  6
CONTINUOUS
 10
6.4476021781782986
 20
-6.8116628619004498
 30
0.0
 40
0.0400677267646928
  0
LWPOLYLINE
  5
72
  8
SST
 62
256
370
-1
  6
CONTINUOUS
100
AcDbEntity
100
AcDbPolyline
 90
2
 70
1
 10
5.6123601687549236
 20
-6.2830604832595487
 42
0.9999999999999999
 10
5.8563601687549234
 20
-6.2830604832595487
 42
0.9999999999999999
  0
LWPOLYLINE
  5
73
  8
SST
 62
256
370
-1
  6
CONTINUOUS
100
AcDbEntity
100
AcDbPolyline
 90
2
 70
1
 10
4.5503601687549224
 20
-6.2870604832595482
 42
0.9999999999999999
 10
4.7943601687549222
 20
-6.2870604832595482
 42
0.9999999999999999
  0
LWPOLYLINE
  5
74
  8
SST
 62
256
370
-1
  6
CONTINUOUS
100
AcDbEntity
100
AcDbPolyline
 90
8
 70
0
 10
6.1893601687549218
 20
-5.4770604832595495
 10
6.1893601687549218
 20
-5.3140604832595493
 10
5.9763601687549244
 20
-5.3140604832595493
 10
5.9763601687549244
 20
-5.2510604832595487
 10
6.251360168754923
 20
-5.2510604832595487
 10
6.251360168754923
 20
-5.5360604832595488
 10
6.1893601687549218
 20
-5.5360604832595488
 10
6.1893601687549218
 20
-5.4720604832595487
  0
LWPOLYLINE
  5
75
  8
SST
 62
256
370
-1
  6
CONTINUOUS
100
AcDbEntity
100
AcDbPolyline
 90
8
 70
0
 10
6.0263601687549215
 20
-6.3720604832595491
 10
6.1893601687549218
 20
-6.3720604832595491
 10
6.1893601687549218
 20
-6.1600604832595494
 10
6.2523601687549242
 20
-6.1600604832595494
 10
6.2523601687549242
 20
-6.4350604832595497
 10
5.9663601687549228
 20
-6.4350604832595497
 10
5.9663601687549228
 20
-6.3720604832595491
 10
6.0313601687549241
 20
-6.3720604832595491
  0
LWPOLYLINE
  5
76
  8
SST
 62
256
370
-1
  6
CONTINUOUS
100
AcDbEntity
100
AcDbPolyline
 90
8
 70
0
 10
4.1623601687549243
 20
-6.2100604832595483
 10
4.1623601687549243
 20
-6.3730604832595485
 10
4.3753601687549217
 20
-6.3730604832595485
 10
4.3753601687549217
 20
-6.4360604832595492
 10
4.1003601687549232
 20
-6.4360604832595492
 10
4.1003601687549232
 20
-6.1500604832595496
 10
4.1623601687549243
 20
-6.1500604832595496
 10
4.1623601687549243
 20
-6.2150604832595491
  0
LWPOLYLINE
  5
77
  8
SST
 62
256
370
-1
  6
CONTINUOUS
100
AcDbEntity
100
AcDbPolyline
 90
2
 70
1
 10
5.081360168754923
 20
-5.4060604832595498
 42
0.9999999999999999
 10
5.3253601687549228
 20
-5.4060604832595498
 42
0.9999999999999999
  0
LWPOLYLINE
  5
78
  8
SST
 62
256
370
-1
  6
CONTINUOUS
100
AcDbEntity
100
AcDbPolyline
 90
2
 70
1
 10
5.6114673623379687
 20
-5.4018752221612276
 42
-0.9999999999999999
 10
5.8554673409805496
 20
-5.4017731319078903
 42
-0.9999999999999999
  0
LWPOLYLINE
  5
79
  8
SST
 62
256
370
-1
  6
CONTINUOUS
100
AcDbEntity
100
AcDbPolyline
 90
2
 70
1
 10
4.5494657816845478
 20
-5.3983195661550782
 42
-0.9999999999999999
 10
4.7934657603271287
 20
-5.3982174759017409
 42
-0.9999999999999999
  0
LWPOLYLINE
  5
7A
  8
SST
 62
256
370
-1
  6
CONTINUOUS
100
AcDbEntity
100
AcDbPolyline
 90
8
 70
0
 10
4.1614980326525295
 20
-5.4754818996542021
 10
4.1614298330160615
 20
-5.3124819139216566
 10
4.3744298143720837
 20
-5.3123927941513038
 10
4.3744034550033888
 20
-5.2493927996657206
 10
4.0994034790742511
 20
-5.2495078604020922
 10
4.0995231422400753
 20
-5.5355078353683957
 10
4.1615231368131909
 20
-5.5354818944023769
 10
4.1614959406391403
 20
-5.4704819000918548
  0
LWPOLYLINE
  5
7B
  8
SST
 62
256
370
-1
  6
CONTINUOUS
100
AcDbEntity
100
AcDbPolyline
 90
2
 70
1
 10
5.0808343479649665
 20
-6.2790973172189277
 42
-0.9999999999999999
 10
5.3248343266075473
 20
-6.2789952269655904
 42
-0.9999999999999999
  0
LINE
  5
7C
100
AcDbEntity
100
AcDbLine
  8
SST
 62
256
370
-1
  6
CONTINUOUS
 10
3.7940037017678012
 20
-5.3043784894908583
 30
0.0
 11
4.0092124029723717
 21
-5.3043784894908583
 31
0.0
  0
LINE
  5
7D
100
AcDbEntity
100
AcDbLine
  8
SST
 62
256
370
-1
  6
CONTINUOUS
 10
4.0092124029723717
 20
-5.3043784894908583
 30
0.0
 11
4.0092124029723717
 21
-6.3733272031662942
 31
0.0
  0
LINE
  5
7E
100
AcDbEntity
100
AcDbLine
  8
SST
 62
256
370
-1
  6
CONTINUOUS
 10
4.0092124029723717
 20
-6.3733272031662942
 30
0.0
 11
3.7940037017678012
 21
-6.3733272031662942
 31
0.0
  0
LINE
  5
7F
100
AcDbEntity
100
AcDbLine
  8
SST
 62
256
370
-1
  6
CONTINUOUS
 10
3.7940037017678012
 20
-6.3733272031662942
 30
0.0
 11
3.7940037017678012
 21
-5.3043784894908583
 31
0.0
  0
LINE
  5
80
100
AcDbEntity
100
AcDbLine
  8
SST
 62
256
370
-1
  6
CONTINUOUS
 10
6.3410453259682686
 20
-5.3053853644022801
 30
0.0
 11
6.5562540271728356
 21
-5.3053853644022801
 31
0.0
  0
LINE
  5
81
100
AcDbEntity
100
AcDbLine
  8
SST
 62
256
370
-1
  6
CONTINUOUS
 10
6.5562540271728356
 20
-5.3053853644022801
 30
0.0
 11
6.5562540271728356
 21
-6.3743340780777142
 31
0.0
  0
LINE
  5
82
100
AcDbEntity
100
AcDbLine
  8
SST
 62
256
370
-1
  6
CONTINUOUS
 10
6.5562540271728356
 20
-6.3743340780777142
 30
0.0
 11
6.3410453259682686
 21
-6.3743340780777142
 31
0.0
  0
LINE
  5
83
100
AcDbEntity
100
AcDbLine
  8
SST
 62
256
370
-1
  6
CONTINUOUS
 10
6.3410453259682686
 20
-6.3743340780777142
 30
0.0
 11
6.3410453259682686
 21
-5.3053853644022801
 31
0.0
  0
LWPOLYLINE
  5
84
  8
SST
 62
256
370
-1
  6
CONTINUOUS
100
AcDbEntity
100
AcDbPolyline
 90
20
 70
0
 10
3.8187521705567433
 20
-4.0815800802632838
 42
0.4825089345267771
 10
3.814634874730447
 20
-7.6016179113924762
 10
3.8186348747304493
 20
-7.6016179113924753
 10
3.8186348747304493
 20
-7.0366179113924758
 10
3.818721949222267
 20
-6.9186075161641565
 10
5.7844330330337073
 20
-6.9187126000156471
 10
6.3911151614473614
 20
-6.9184633127419524
 10
6.5756143346241576
 20
-6.9186208622991821
 10
6.575523557546509
 20
-7.0367495838933323
 10
6.5756348747304489
 20
-7.6106179113924757
 10
6.5796348747304503
 20
-7.6106179113924757
 42
0.4911147406842462
 10
6.5796348747304503
 20
-4.0716179113924751
 10
6.5756348747304489
 20
-4.071617911392476
 10
6.5765839282199874
 20
-4.7729722823536367
 10
4.8313143029770114
 20
-4.7728425545727333
 10
4.8313738594104869
 20
-4.7728949088869852
 10
3.8185920634350232
 20
-4.7728576155832112
 10
3.8185284768415872
 20
-4.772805261268692
 10
3.8186348747304493
 20
-4.6546179113924762
 10
3.8186348747304493
 20
-4.0816179113924758
  0
LINE
  5
85
100
AcDbEntity
100
AcDbLine
  8
SST
 62
256
370
-1
  6
CONTINUOUS
 10
10.5813943551455338
 20
-7.1942035437931278
 30
0.0
 11
10.5813943551455338
 21
-7.1942035437931278
 31
0.0
  0
CIRCLE
  5
86
100
AcDbEntity
100
AcDbCircle
  8
0
 62
256
370
-1
  6
CONTINUOUS
 10
8.8575913088813145
 20
-6.4280268829304177
 30
0.0
 40
0.0590551181102362
  0
CIRCLE
  5
87
100
AcDbEntity
100
AcDbCircle
  8
0
 62
256
370
-1
  6
CONTINUOUS
 10
8.8575913088813127
 20
-5.7390505049776621
 30
0.0
 40
0.0590551181102362
  0
CIRCLE
  5
88
100
AcDbEntity
100
AcDbCircle
  8
0
 62
256
370
-1
  6
CONTINUOUS
 10
9.9697960332907627
 20
-6.4280268829304177
 30
0.0
 40
0.0590551181102362
  0
CIRCLE
  5
89
100
AcDbEntity
100
AcDbCircle
  8
0
 62
256
370
-1
  6
CONTINUOUS
 10
9.9697960332907627
 20
-5.7390505049776621
 30
0.0
 40
0.0590551181102362
  0
CIRCLE
  5
8A
100
AcDbEntity
100
AcDbCircle
  8
0
 62
256
370
-1
  6
CONTINUOUS
 10
9.2020794978576532
 20
-6.0835386939540399
 30
0.0
 40
0.1673228346456693
  0
CIRCLE
  5
8B
100
AcDbEntity
100
AcDbCircle
  8
0
 62
256
370
-1
  6
CONTINUOUS
 10
9.6253078443143849
 20
-6.0835386939540399
 30
0.0
 40
0.0841951175806459
  0
LINE
  5
8C
100
AcDbEntity
100
AcDbLine
  8
SST
 62
256
370
-1
  6
CONTINUOUS
 10
10.5797746366610195
 20
-7.2004025790118948
 30
0.0
 11
7.8224908075967932
 21
-7.2004025790118948
 31
0.0
  0
LINE
  5
8D
100
AcDbEntity
100
AcDbLine
  8
SST
 62
256
370
-1
  6
CONTINUOUS
 10
10.5797371614398266
 20
-4.7730242172023196
 30
0.0
 11
10.5797566370032907
 21
-7.2004071099419118
 31
0.0
  0
LINE
  5
8E
100
AcDbEntity
100
AcDbLine
  8
SST
 62
256
370
-1
  6
CONTINUOUS
 10
7.8224381424187683
 20
-7.2004071099422458
 30
0.0
 11
7.8224121749961348
 21
-4.7730242172023214
 31
0.0
  0
LINE
  5
8F
100
AcDbEntity
100
AcDbLine
  8
SST
 62
256
370
-1
  6
CONTINUOUS
 10
7.8224381424201024
 20
-4.7729722823536367
 30
0.0
 11
10.5797219714843287
 21
-4.7729722823536367
 31
0.0
  0
CIRCLE
  5
90
100
AcDbEntity
100
AcDbCircle
  8
0
 62
256
370
-1
  6
CONTINUOUS
 10
9.5466036700422112
 20
-5.7388831982651674
 30
0.0
 40
0.0590551181102362
  0
CIRCLE
  5
91
100
AcDbEntity
100
AcDbCircle
  8
0
 62
256
370
-1
  6
CONTINUOUS
 10
9.546603670042213
 20
-6.4278595762179229
 30
0.0
 40
0.0590551181102362
  0
CIRCLE
  5
92
100
AcDbEntity
100
AcDbCircle
  8
0
 62
256
370
-1
  6
CONTINUOUS
 10
8.434398945632763
 20
-5.7388831982651656
 30
0.0
 40
0.0590551181102362
  0
CIRCLE
  5
93
100
AcDbEntity
100
AcDbCircle
  8
0
 62
256
370
-1
  6
CONTINUOUS
 10
8.434398945632763
 20
-6.4278595762179211
 30
0.0
 40
0.0590551181102362
  0
CIRCLE
  5
94
100
AcDbEntity
100
AcDbCircle
  8
0
 62
256
370
-1
  6
CONTINUOUS
 10
9.2021154810658725
 20
-6.0833713872415434
 30
0.0
 40
0.1673228346456693
  0
CIRCLE
  5
95
100
AcDbEntity
100
AcDbCircle
  8
0
 62
256
370
-1
  6
CONTINUOUS
 10
8.7788871346091408
 20
-6.0833713872415434
 30
0.0
 40
0.0841951175806459
  0
ARC
  5
96
100
AcDbEntity
  8
SST
 62
256
370
-1
  6
CONTINUOUS
100
AcDbCircle
 10
13.8334917768658645
 20
-4.2327897811088242
 30
0.0
 40
2.2504257350136858
100
AcDbArc
 50
151.2922927344450841
 51
208.7161068676981586
  0
LINE
  5
97
100
AcDbEntity
100
AcDbLine
  8
SST
 62
256
370
-1
  6
CONTINUOUS
 10
11.8596878421728
 20
-3.15182075046225
 30
0.0
 11
11.8600237127082675
 21
-5.3141203362358755
 31
0.0
  0
ARC
  5
98
100
AcDbEntity
  8
SST
 62
256
370
-1
  6
CONTINUOUS
100
AcDbCircle
 10
11.7336415999508272
 20
-4.2682753605880013
 30
0.0
 40
2.2504257350136858
100
AcDbArc
 50
331.2922927344450841
 51
28.7161068676981301
  0
LINE
  5
99
100
AcDbEntity
100
AcDbLine
  8
SST
 62
256
370
-1
  6
CONTINUOUS
 10
13.7074455346438917
 20
-5.3492443912345777
 30
0.0
 11
13.7071096641084242
 21
-3.1869448054609513
 31
0.0
  0
ENDSEC
  0
SECTION
  2
OBJECTS
  0
DICTIONARY
  5
C
100
AcDbDictionary
280
0
281
1
  3
ACAD_GROUP
350
D
  3
ACAD_LAYOUT
350
1A
  3
ACAD_MLINESTYLE
350
17
  3
ACAD_PLOTSETTINGS
350
19
  3
ACAD_PLOTSTYLENAME
350
E
  3
AcDbVariableDictionary
350
9A
  0
DICTIONARY
  5
D
100
AcDbDictionary
280
0
281
1
  0
ACDBDICTIONARYWDFLT
  5
E
100
AcDbDictionary
281
1
  3
Normal
350
F
100
AcDbDictionaryWithDefault
340
F
  0
ACDBPLACEHOLDER
  5
F
  0
DICTIONARY
  5
17
100
AcDbDictionary
280
0
281
1
  3
Standard
350
18
  0
MLINESTYLE
  5
18
100
AcDbMlineStyle
  2
STANDARD
 70
0
  3

 62
256
 51
90.0
 52
90.0
 71
2
 49
0.5
 62
256
  6
BYLAYER
 49
-0.5
 62
256
  6
BYLAYER
  0
DICTIONARY
  5
19
100
AcDbDictionary
280
0
281
1
  0
DICTIONARY
  5
1A
100
AcDbDictionary
281
1
  3
Layout1
350
1E
  3
Layout2
350
26
  3
Model
350
22
  0
LAYOUT
  5
1E
100
AcDbPlotSettings
  1

  2
C:\Program Files\AutoCAD 2002\plotters\DWF ePlot (optimized for plotting).pc3
  4

  6

 40
0.0
 41
0.0
 42
0.0
 43
0.0
 44
0.0
 45
0.0
 46
0.0
 47
0.0
 48
0.0
 49
0.0
140
0.0
141
0.0
142
1.0
143
1.0
 70
688
 72
0
 73
0
 74
5
  7

 75
16
147
1.0
148
0.0
149
0.0
100
AcDbLayout
  1
Layout1
 70
1
 71
1
 10
0.0
 20
0.0
 11
420.0
 21
297.0
 12
0.0
 22
0.0
 32
0.0
 14
100000000000000000000.0
 24
100000000000000000000.0
 34
100000000000000000000.0
 15
-100000000000000000000.0
 25
-100000000000000000000.0
 35
-100000000000000000000.0
146
0.0
 13
0.0
 23
0.0
 33
0.0
 16
1.0
 26
0.0
 36
0.0
 17
0.0
 27
1.0
 37
0.0
 76
0
330
1B
  0
LAYOUT
  5
22
100
AcDbPlotSettings
  1

  2
C:\Program Files\AutoCAD 2002\plotters\DWF ePlot (optimized for plotting).pc3
  4

  6

 40
0.0
 41
0.0
 42
0.0
 43
0.0
 44
0.0
 45
0.0
 46
0.0
 47
0.0
 48
0.0
 49
0.0
140
0.0
141
0.0
142
1.0
143
1.0
 70
1712
 72
0
 73
0
 74
0
  7

 75
0
147
1.0
148
0.0
149
0.0
100
AcDbLayout
  1
Model
 70
1
 71
0
 10
0.0
 20
0.0
 11
12.0
 21
9.0
 12
0.0
 22
0.0
 32
0.0
 14
0.0
 24
0.0
 34
0.0
 15
0.0
 25
0.0
 35
0.0
146
0.0
 13
0.0
 23
0.0
 33
0.0
 16
1.0
 26
0.0
 36
0.0
 17
0.0
 27
1.0
 37
0.0
 76
0
330
1F
  0
LAYOUT
  5
26
100
AcDbPlotSettings
  1

  2
C:\Program Files\AutoCAD 2002\plotters\DWF ePlot (optimized for plotting).pc3
  4

  6

 40
0.0
 41
0.0
 42
0.0
 43
0.0
 44
0.0
 45
0.0
 46
0.0
 47
0.0
 48
0.0
 49
0.0
140
0.0
141
0.0
142
1.0
143
1.0
 70
688
 72
0
 73
0
 74
5
  7

 75
16
147
1.0
148
0.0
149
0.0
100
AcDbLayout
  1
Layout2
 70
1
 71
2
 10
0.0
 20
0.0
 11
12.0
 21
9.0
 12
0.0
 22
0.0
 32
0.0
 14
0.0
 24
0.0
 34
0.0
 15
0.0
 25
0.0
 35
0.0
146
0.0
 13
0.0
 23
0.0
 33
0.0
 16
1.0
 26
0.0
 36
0.0
 17
0.0
 27
1.0
 37
0.0
 76
0
330
23
  0
DICTIONARY
  5
9A
100
AcDbDictionary
281
1
  3
DIMASSOC
350
9C
  3
HIDETEXT
350
9B
  0
DICTIONARYVAR
  5
9B
100
DictionaryVariables
280
0
  1
2
  0
DICTIONARYVAR
  5
9C
100
DictionaryVariables
280
0
  1
1
  0
ENDSEC
  0
EOF
