*
G04 Mass Parameters ***
*
G04 Image ***
*
%INC:\CAIN\ECBOT\V3\CAMERA.DRD*%
%ICAS*%
%MOIN*%
%IPPOS*%
%ASAXBY*%
G74*%FSLAN2X34Y34*%
*
G04 Aperture Definitions ***
*
%ADD10R,0.0500X0.0500*%
%ADD11R,0.0500X0.0400*%
%ADD12C,0.0709*%
%ADD13R,0.0276X0.0787*%
%ADD14R,0.0787X0.0276*%
%ADD15C,0.0472*%
%ADD16C,0.0315*%
%ADD17C,0.0079*%
%ADD18C,0.0197*%
%ADD19C,0.0157*%
%ADD20C,0.0098*%
%ADD21R,0.0400X0.0500*%
%ADD22R,0.0500X0.0400*%
%ADD23R,0.1000X0.0600*%
%ADD24R,0.0500X0.0500*%
%ADD25C,0.0709*%
%ADD26C,0.0472*%
%ADD27C,0.0315*%
%ADD28C,0.0100*%
%ADD29C,0.0748*%
%ADD30R,0.0315X0.0866*%
%ADD31R,0.0866X0.0315*%
%ADD32C,0.0551*%
%ADD33R,0.1050X0.0650*%
%ADD34C,0.0060*%
%ADD35C,0.0118*%
*
G04 Plot Data ***
*
G54D19*
G01X-0006056Y0018221D02*
X-0006070Y0018208D01*
X-0006071Y0018235D01*
X-0006077Y0018228D01*
X0004070D01*
Y0009064D01*
X0003143D01*
Y0007376D01*
X-0005006D01*
Y0009063D01*
X-0005060Y0009064D01*
X-0006056D01*
Y0018221D01*
G54D28*
G01X0024625Y-0009333D02*
X0024708Y-0009167D01*
Y-0009000D01*
X0024625Y-0008833D01*
X0024125D01*
X0024042Y-0009000D01*
Y-0009167D01*
X0024125Y-0009333D01*
X0024625D01*
X0024708Y-0009500D01*
Y-0009667D01*
X0024625Y-0009833D01*
X0024125D01*
X0024042Y-0009667D01*
Y-0009500D01*
X0024125Y-0009333D01*
X0023758Y-0009500D02*
X0023092D01*
X0023425Y-0008833D01*
X0023592D01*
Y-0009833D01*
X0012312D02*
X0011729D01*
Y-0008833D01*
X0011446Y-0009500D02*
X0010779D01*
X0011446Y-0009833D02*
Y-0009333D01*
X0011196Y-0008833D01*
X0011029D01*
X0010779Y-0009333D01*
Y-0009833D01*
X0010162D02*
Y-0008833D01*
X0010496D02*
X0009829D01*
X0008962Y-0009833D02*
X0008879Y-0009667D01*
Y-0009000D01*
X0008962Y-0008833D01*
X0009462D01*
X0009546Y-0009000D01*
Y-0009667D01*
X0009462Y-0009833D01*
X0008962D01*
X0008262D02*
Y-0008833D01*
X0008596D02*
X0007929D01*
X0024708Y-0007972D02*
X0024264D01*
X0024708Y-0007528D01*
Y-0007417D01*
X0024653Y-0007306D01*
X0024319D01*
X0024264Y-0007417D01*
X0010869Y-0007972D02*
Y-0007639D01*
X0011092Y-0007972D02*
Y-0007639D01*
X0011036Y-0007528D01*
X0010925D01*
X0010869Y-0007639D01*
X0010814Y-0007528D01*
X0010703D01*
X0010647Y-0007639D01*
Y-0007972D01*
X0010169D02*
Y-0007639D01*
X0010392Y-0007972D02*
Y-0007639D01*
X0010336Y-0007528D01*
X0010225D01*
X0010169Y-0007639D01*
X0010114Y-0007528D01*
X0010003D01*
X0009947Y-0007639D01*
Y-0007972D01*
X0008464D02*
X0008353Y-0007861D01*
X0008297Y-0007750D01*
Y-0007528D01*
X0008353Y-0007417D01*
X0008464Y-0007306D01*
X0008575D01*
X0008686Y-0007417D01*
X0008742Y-0007528D01*
Y-0007750D01*
X0008686Y-0007861D01*
X0008575Y-0007972D01*
X0008464D01*
X0007764D02*
X0007653Y-0007861D01*
X0007597Y-0007750D01*
Y-0007528D01*
X0007653Y-0007417D01*
X0007764Y-0007306D01*
X0007875D01*
X0007986Y-0007417D01*
X0008042Y-0007528D01*
Y-0007750D01*
X0007986Y-0007861D01*
X0007875Y-0007972D01*
X0007764D01*
X0007286Y-0007639D02*
X0007342Y-0007528D01*
Y-0007417D01*
X0007286Y-0007306D01*
X0006953D01*
X0006897Y-0007417D01*
Y-0007528D01*
X0006953Y-0007639D01*
X0007286D01*
X0007342Y-0007750D01*
Y-0007861D01*
X0007286Y-0007972D01*
X0006953D01*
X0006897Y-0007861D01*
Y-0007750D01*
X0006953Y-0007639D01*
X0006531Y-0007972D02*
X0006642D01*
Y-0007861D01*
X0006531D01*
Y-0007972D01*
X0006164D02*
X0005942D01*
X0006053D02*
Y-0007306D01*
X0005942Y-0007417D01*
X0024430Y-0006472D02*
X0024319Y-0006361D01*
X0024264Y-0006250D01*
Y-0006028D01*
X0024319Y-0005917D01*
X0024430Y-0005806D01*
X0024542D01*
X0024653Y-0005917D01*
X0024708Y-0006028D01*
Y-0006250D01*
X0024653Y-0006361D01*
X0024542Y-0006472D01*
X0024430D01*
X0024008D02*
X0023564D01*
X0024008Y-0006028D01*
Y-0005917D01*
X0023953Y-0005806D01*
X0023619D01*
X0023564Y-0005917D01*
X0010869Y-0006472D02*
Y-0006139D01*
X0011092Y-0006472D02*
Y-0006139D01*
X0011036Y-0006028D01*
X0010925D01*
X0010869Y-0006139D01*
X0010814Y-0006028D01*
X0010703D01*
X0010647Y-0006139D01*
Y-0006472D01*
X0010169D02*
Y-0006139D01*
X0010392Y-0006472D02*
Y-0006139D01*
X0010336Y-0006028D01*
X0010225D01*
X0010169Y-0006139D01*
X0010114Y-0006028D01*
X0010003D01*
X0009947Y-0006139D01*
Y-0006472D01*
X0008464D02*
X0008353Y-0006361D01*
X0008297Y-0006250D01*
Y-0006028D01*
X0008353Y-0005917D01*
X0008464Y-0005806D01*
X0008575D01*
X0008686Y-0005917D01*
X0008742Y-0006028D01*
Y-0006250D01*
X0008686Y-0006361D01*
X0008575Y-0006472D01*
X0008464D01*
X0007764D02*
X0007653Y-0006361D01*
X0007597Y-0006250D01*
Y-0006028D01*
X0007653Y-0005917D01*
X0007764Y-0005806D01*
X0007875D01*
X0007986Y-0005917D01*
X0008042Y-0006028D01*
Y-0006250D01*
X0007986Y-0006361D01*
X0007875Y-0006472D01*
X0007764D01*
X0007286Y-0006139D02*
X0007342Y-0006028D01*
Y-0005917D01*
X0007286Y-0005806D01*
X0006953D01*
X0006897Y-0005917D01*
Y-0006028D01*
X0006953Y-0006139D01*
X0007286D01*
X0007342Y-0006250D01*
Y-0006361D01*
X0007286Y-0006472D01*
X0006953D01*
X0006897Y-0006361D01*
Y-0006250D01*
X0006953Y-0006139D01*
X0006531Y-0006472D02*
X0006642D01*
Y-0006361D01*
X0006531D01*
Y-0006472D01*
X0005886D02*
X0005775Y-0006361D01*
X0005719Y-0006250D01*
Y-0006028D01*
X0005775Y-0005917D01*
X0005886Y-0005806D01*
X0005997D01*
X0006108Y-0005917D01*
X0006164Y-0006028D01*
Y-0006250D01*
X0006108Y-0006361D01*
X0005997Y-0006472D01*
X0005886D01*
X0024319Y-0004639D02*
X0024653D01*
X0024708Y-0004750D01*
Y-0004861D01*
X0024653Y-0004972D01*
X0024319D01*
X0024264Y-0004861D01*
Y-0004750D01*
X0024486Y-0004306D01*
X0024008Y-0004972D02*
X0023564D01*
X0024008Y-0004528D01*
Y-0004417D01*
X0023953Y-0004306D01*
X0023619D01*
X0023564Y-0004417D01*
X0010869Y-0004972D02*
Y-0004639D01*
X0011092Y-0004972D02*
Y-0004639D01*
X0011036Y-0004528D01*
X0010925D01*
X0010869Y-0004639D01*
X0010814Y-0004528D01*
X0010703D01*
X0010647Y-0004639D01*
Y-0004972D01*
X0010169D02*
Y-0004639D01*
X0010392Y-0004972D02*
Y-0004639D01*
X0010336Y-0004528D01*
X0010225D01*
X0010169Y-0004639D01*
X0010114Y-0004528D01*
X0010003D01*
X0009947Y-0004639D01*
Y-0004972D01*
X0008464D02*
X0008353Y-0004861D01*
X0008297Y-0004750D01*
Y-0004528D01*
X0008353Y-0004417D01*
X0008464Y-0004306D01*
X0008575D01*
X0008686Y-0004417D01*
X0008742Y-0004528D01*
Y-0004750D01*
X0008686Y-0004861D01*
X0008575Y-0004972D01*
X0008464D01*
X0007764D02*
X0007653Y-0004861D01*
X0007597Y-0004750D01*
Y-0004528D01*
X0007653Y-0004417D01*
X0007764Y-0004306D01*
X0007875D01*
X0007986Y-0004417D01*
X0008042Y-0004528D01*
Y-0004750D01*
X0007986Y-0004861D01*
X0007875Y-0004972D01*
X0007764D01*
X0007342Y-0004750D02*
X0006897D01*
X0007119Y-0004306D01*
X0007230D01*
Y-0004972D01*
X0006531D02*
X0006642D01*
Y-0004861D01*
X0006531D01*
Y-0004972D01*
X0005886D02*
X0005775Y-0004861D01*
X0005719Y-0004750D01*
Y-0004528D01*
X0005775Y-0004417D01*
X0005886Y-0004306D01*
X0005997D01*
X0006108Y-0004417D01*
X0006164Y-0004528D01*
Y-0004750D01*
X0006108Y-0004861D01*
X0005997Y-0004972D01*
X0005886D01*
X0033112Y-0002833D02*
X0032612D01*
X0033279Y-0003333D02*
X0032612D01*
Y-0002333D01*
X0033279D01*
X0031996Y-0003333D02*
Y-0002333D01*
X0032329D02*
X0031662D01*
X0030796Y-0003333D02*
X0030712Y-0003167D01*
Y-0002500D01*
X0030796Y-0002333D01*
X0031296D01*
X0031379Y-0002500D01*
Y-0003167D01*
X0031296Y-0003333D01*
X0030796D01*
X0030429Y-0002333D02*
Y-0003333D01*
X0030262Y-0003167D01*
X0029929Y-0002500D01*
X0029762Y-0002333D01*
Y-0003333D01*
X0023925D02*
Y-0002833D01*
X0024258Y-0002333D02*
X0024008Y-0002833D01*
X0023842D01*
X0023592Y-0002333D01*
X0022975Y-0003333D02*
Y-0002333D01*
X0023308D02*
X0022642D01*
X0022025Y-0003000D02*
X0022358Y-0003333D01*
X0021692Y-0003167D02*
X0021775Y-0003333D01*
X0022108D01*
X0022192Y-0003167D01*
X0022358Y-0003000D01*
Y-0002500D01*
X0022275Y-0002333D01*
X0021775D01*
X0021692Y-0002500D01*
Y-0003167D01*
X0017408Y-0003333D02*
X0016825D01*
Y-0002333D01*
X0015958Y-0003333D02*
X0015875Y-0003167D01*
Y-0002500D01*
X0015958Y-0002333D01*
X0016458D01*
X0016542Y-0002500D01*
Y-0003167D01*
X0016458Y-0003333D01*
X0015958D01*
X0015258D02*
Y-0002333D01*
X0015592D02*
X0014925D01*
X0009587Y-0003333D02*
Y-0002333D01*
X0009421Y-0002500D01*
X0009254Y-0002833D01*
X0009087Y-0002500D01*
X0008921Y-0002333D01*
Y-0003333D01*
X0008637Y-0003000D02*
X0007971D01*
X0008637Y-0003333D02*
Y-0002833D01*
X0008387Y-0002333D01*
X0008221D01*
X0007971Y-0002833D01*
Y-0003333D01*
X0007687D02*
X0007354D01*
X0007521D02*
Y-0002333D01*
X0007687D02*
X0007354D01*
X0006321Y-0003333D02*
Y-0002333D01*
X0006237Y-0003333D02*
X0006737D01*
X0006904Y-0003000D01*
Y-0002667D01*
X0006737Y-0002333D01*
X0006237D01*
X0003150Y-0003333D02*
Y-0002333D01*
X0002983Y-0002500D01*
X0002817Y-0002833D01*
X0002650Y-0002500D01*
X0002483Y-0002333D01*
Y-0003333D01*
X0001867D02*
Y-0002833D01*
X0002200Y-0002333D02*
X0001950Y-0002833D01*
X0001783D01*
X0001533Y-0002333D01*
X0001250Y-0002500D02*
X0001167Y-0002333D01*
X0000667D01*
X0000583Y-0002500D01*
Y-0002667D01*
X0000667Y-0002833D01*
X0001167D01*
X0001250Y-0003000D01*
Y-0003167D01*
X0001167Y-0003333D01*
X0000667D01*
X0000583Y-0003167D01*
X0023437Y-0001333D02*
Y-0000333D01*
X0023771D02*
X0023104D01*
X0022571Y-0000833D02*
X0022821Y-0001333D01*
X0022154Y-0000833D02*
X0022654D01*
X0022821Y-0000667D01*
Y-0000500D01*
X0022654Y-0000333D01*
X0022154D01*
Y-0001333D01*
X0021871Y-0001000D02*
X0021204D01*
X0021871Y-0001333D02*
Y-0000833D01*
X0021621Y-0000333D01*
X0021454D01*
X0021204Y-0000833D01*
Y-0001333D01*
X0020921Y-0000833D02*
X0020254D01*
X0020921Y-0001333D02*
Y-0000333D01*
X0020254Y-0001333D02*
Y-0000333D01*
X0019971Y-0001167D02*
X0019887Y-0001333D01*
X0019387D01*
X0019304Y-0001167D01*
Y-0000500D01*
X0019387Y-0000333D01*
X0019887D01*
X0019971Y-0000500D01*
X0017696Y-0001333D02*
X0017112D01*
Y-0000333D01*
X0016829Y-0001333D02*
X0016246D01*
Y-0000333D01*
X0015962Y-0001333D02*
X0015629D01*
X0015796D02*
Y-0000333D01*
X0015962D02*
X0015629D01*
X0014929Y-0000833D02*
X0015179Y-0001333D01*
X0014512Y-0000833D02*
X0015012D01*
X0015179Y-0000667D01*
Y-0000500D01*
X0015012Y-0000333D01*
X0014512D01*
Y-0001333D01*
X0013646D02*
Y-0000333D01*
X0013562Y-0001333D02*
X0014062D01*
X0014229Y-0001000D01*
Y-0000667D01*
X0014062Y-0000333D01*
X0013562D01*
X0001825Y-0007500D02*
X0001575Y-0007750D01*
X0002075D02*
X0001825Y-0007500D01*
Y-0008000D02*
X0002075Y-0007750D01*
X0001575D02*
X0001825Y-0008000D01*
X0002075Y-0006000D02*
X0001575Y-0006500D01*
X0002075D02*
X0001575Y-0006000D01*
X0002075Y-0004750D02*
X0001575D01*
X0001825Y-0004500D02*
Y-0005000D01*
X0037300Y-0010550D02*
X-0000050D01*
X0037250Y-0010500D02*
X0000000D01*
X0037250Y-0008500D02*
X0000000D01*
X0037250Y-0007000D02*
X0000000D01*
X0037250Y-0005500D02*
X0000000D01*
X0037250Y-0004000D02*
X0000000D01*
X0037250Y-0003950D02*
X0000000D01*
X0037250Y-0002000D02*
X0000000D01*
X0037250Y-0001950D02*
X0000000D01*
X0037250Y0000000D02*
X0000000D01*
X0037300Y0000050D02*
X-0000050D01*
X0037300Y-0010500D02*
Y0000000D01*
X0037250Y-0010500D02*
Y0000000D01*
X0025708Y-0010500D02*
Y-0002000D01*
X0020158Y-0010500D02*
Y-0002000D01*
X0012092Y-0008500D02*
Y-0002000D01*
X0003700Y-0008500D02*
Y-0002000D01*
X0003650Y-0008500D02*
Y-0002000D01*
X-0000050Y-0010500D02*
Y0000000D01*
X0000000Y-0010500D02*
Y0000000D01*
X0003377Y0017210D02*
X0002877D01*
X0003127Y0017460D02*
Y0016960D01*
X0003874Y0017210D02*
X0003374D01*
X0003624Y0017460D02*
Y0016960D01*
X-0000182Y0011965D02*
X-0000682D01*
X-0000432Y0012215D02*
Y0011715D01*
X-0000786Y0011965D02*
X-0001286D01*
X-0001036Y0012215D02*
Y0011715D01*
X-0002848Y0015868D02*
X-0003348D01*
X-0003098Y0016118D02*
Y0015618D01*
X-0003234Y0016699D02*
X-0003734D01*
X-0003484Y0016949D02*
Y0016449D01*
X-0002702Y0011765D02*
X-0003202D01*
X-0002952Y0012015D02*
Y0011515D01*
X-0002981Y0014899D02*
X-0003481D01*
X-0003231Y0015149D02*
Y0014649D01*
X-0001179Y0016057D02*
X-0001679D01*
X-0001429Y0016307D02*
Y0015807D01*
X-0002541Y0016129D02*
X-0003041D01*
X-0002791Y0016379D02*
Y0015879D01*
X0000259Y0017206D02*
X-0000241D01*
X0000009Y0017456D02*
Y0016956D01*
X0001507Y0015299D02*
X0001007D01*
X0001257Y0015549D02*
Y0015049D01*
X0001515Y0014499D02*
X0001015D01*
X0001265Y0014749D02*
Y0014249D01*
X0001501Y0012099D02*
X0001001D01*
X0001251Y0012349D02*
Y0011849D01*
X-0001741Y0016173D02*
X-0002241D01*
X-0001991Y0016423D02*
Y0015923D01*
X0003867Y0013136D02*
X0003367D01*
X0003617Y0013386D02*
Y0012886D01*
X0002599Y0013299D02*
X0002099D01*
X0002349Y0013549D02*
Y0013049D01*
X0001480Y0012899D02*
X0000980D01*
X0001230Y0013149D02*
Y0012649D01*
X0001480Y0013699D02*
X0000980D01*
X0001230Y0013949D02*
Y0013449D01*
X0002818Y0014291D02*
X0002318D01*
X0002568Y0014541D02*
Y0014041D01*
X0002603Y0012499D02*
X0002103D01*
X0002353Y0012749D02*
Y0012249D01*
X-0000943Y0017173D02*
X-0001443D01*
X-0001193Y0017423D02*
Y0016923D01*
X-0002965Y0014099D02*
X-0003465D01*
X-0003215Y0014349D02*
Y0013849D01*
X0001047Y0011915D02*
X0000547D01*
X0000797Y0012165D02*
Y0011665D01*
X0001059Y0016060D02*
X0000559D01*
X0000809Y0016310D02*
Y0015810D01*
X-0000141Y0016086D02*
X-0000641D01*
X-0000391Y0016336D02*
Y0015836D01*
X-0004258Y0008223D02*
X-0004758Y0007723D01*
X-0004258D02*
X-0004758Y0008223D01*
X-0004258Y0009010D02*
X-0004758Y0008510D01*
X-0004258D02*
X-0004758Y0009010D01*
X-0003471Y0008223D02*
X-0003971Y0007723D01*
X-0003471D02*
X-0003971Y0008223D01*
X-0003471Y0009010D02*
X-0003971Y0008510D01*
X-0003471D02*
X-0003971Y0009010D01*
X-0002683Y0008223D02*
X-0003183Y0007723D01*
X-0002683D02*
X-0003183Y0008223D01*
X-0002683Y0009010D02*
X-0003183Y0008510D01*
X-0002683D02*
X-0003183Y0009010D01*
X-0001896Y0008223D02*
X-0002396Y0007723D01*
X-0001896D02*
X-0002396Y0008223D01*
X-0001896Y0009010D02*
X-0002396Y0008510D01*
X-0001896D02*
X-0002396Y0009010D01*
X-0001108Y0008223D02*
X-0001608Y0007723D01*
X-0001108D02*
X-0001608Y0008223D01*
X-0001108Y0009010D02*
X-0001608Y0008510D01*
X-0001108D02*
X-0001608Y0009010D01*
X-0000321Y0008223D02*
X-0000821Y0007723D01*
X-0000321D02*
X-0000821Y0008223D01*
X-0000321Y0009010D02*
X-0000821Y0008510D01*
X-0000321D02*
X-0000821Y0009010D01*
X0000466Y0008223D02*
X-0000034Y0007723D01*
X0000466D02*
X-0000034Y0008223D01*
X0000466Y0009010D02*
X-0000034Y0008510D01*
X0000466D02*
X-0000034Y0009010D01*
X0001254Y0008223D02*
X0000754Y0007723D01*
X0001254D02*
X0000754Y0008223D01*
X0001254Y0009010D02*
X0000754Y0008510D01*
X0001254D02*
X0000754Y0009010D01*
X0002041Y0008223D02*
X0001541Y0007723D01*
X0002041D02*
X0001541Y0008223D01*
X0002041Y0009010D02*
X0001541Y0008510D01*
X0002041D02*
X0001541Y0009010D01*
X0002829Y0008223D02*
X0002329Y0007723D01*
X0002829D02*
X0002329Y0008223D01*
X0002829Y0009010D02*
X0002329Y0008510D01*
X0002829D02*
X0002329Y0009010D01*
X-0005320Y0014147D02*
X-0005570Y0013897D01*
X-0005070D02*
X-0005320Y0014147D01*
Y0013647D02*
X-0005070Y0013897D01*
X-0005570D02*
X-0005320Y0013647D01*
X0003342Y0014145D02*
X0003092Y0013895D01*
X0003592D02*
X0003342Y0014145D01*
Y0013645D02*
X0003592Y0013895D01*
X0003092D02*
X0003342Y0013645D01*
M02*
