*
G04 Mass Parameters ***
*
G04 Image ***
*
%INC:\CAIN\ECBOT\V3\CAMERA.SMT*%
%ICAS*%
%MOIN*%
%IPPOS*%
%ASAXBY*%
G74*%FSLAN2X34Y34*%
*
G04 Aperture Definitions ***
*
%ADD10R,0.0500X0.0500*%
%ADD11R,0.0500X0.0400*%
%ADD12C,0.0709*%
%ADD13R,0.0276X0.0787*%
%ADD14R,0.0787X0.0276*%
%ADD15C,0.0472*%
%ADD16C,0.0315*%
%ADD17C,0.0079*%
%ADD18C,0.0197*%
%ADD19C,0.0157*%
%ADD20C,0.0098*%
%ADD21R,0.0400X0.0500*%
%ADD22R,0.0500X0.0400*%
%ADD23R,0.1000X0.0600*%
%ADD24R,0.0500X0.0500*%
%ADD25C,0.0709*%
%ADD26C,0.0472*%
%ADD27C,0.0315*%
%ADD28C,0.0100*%
%ADD29C,0.0748*%
%ADD30R,0.0315X0.0866*%
%ADD31R,0.0866X0.0315*%
%ADD32C,0.0551*%
*
G04 Plot Data ***
*
G54D22*
X0003521Y0012748D03*
Y0012188D03*
X0003315Y0015684D03*
Y0015124D03*
G54D24*
X0002573Y0009539D03*
X0003413D03*
G54D29*
X-0005320Y0013897D03*
X0003342Y0013895D03*
G54D30*
X-0001191Y0016699D03*
X-0001591D03*
X-0001991D03*
X-0002391D03*
X-0002791D03*
X-0003191D03*
Y0011101D03*
X-0002791D03*
X-0002391D03*
X-0001985D03*
X-0001591D03*
X-0001191D03*
X-0000791D03*
X-0000391D03*
X0000009D03*
X0000409D03*
X0000809D03*
X0001209D03*
Y0016699D03*
X0000809D03*
X0000409D03*
X0000009D03*
X-0000391D03*
X-0000791D03*
G54D31*
X-0003791Y0016099D03*
Y0015699D03*
Y0015299D03*
Y0014899D03*
Y0014499D03*
Y0014099D03*
Y0013699D03*
Y0013299D03*
Y0012899D03*
Y0012499D03*
Y0012099D03*
Y0011699D03*
X0001809D03*
Y0012099D03*
Y0012499D03*
Y0012899D03*
Y0013299D03*
Y0013699D03*
Y0014099D03*
Y0014499D03*
Y0014899D03*
Y0015299D03*
Y0015699D03*
Y0016099D03*
G54D32*
X-0004508Y0007973D03*
Y0008760D03*
X-0003721Y0007973D03*
Y0008760D03*
X-0002933Y0007973D03*
Y0008760D03*
X-0002146Y0007973D03*
Y0008760D03*
X-0001358Y0007973D03*
Y0008760D03*
X-0000571Y0007973D03*
Y0008760D03*
X0000216Y0007973D03*
Y0008760D03*
X0001004Y0007973D03*
Y0008760D03*
X0001791Y0007973D03*
Y0008760D03*
X0002579Y0007973D03*
Y0008760D03*
M02*
