*
G04 Mass Parameters ***
*
G04 Image ***
*
%INC:\CAIN\ECBOT\V3\CAMERA.SMB*%
%ICAS*%
%MOIN*%
%IPPOS*%
%ASAXBY*%
G74*%FSLAN2X34Y34*%
*
G04 Aperture Definitions ***
*
%ADD10R,0.0500X0.0500*%
%ADD11R,0.0500X0.0400*%
%ADD12C,0.0709*%
%ADD13R,0.0276X0.0787*%
%ADD14R,0.0787X0.0276*%
%ADD15C,0.0472*%
%ADD16C,0.0315*%
%ADD17C,0.0079*%
%ADD18C,0.0197*%
%ADD19C,0.0157*%
%ADD20C,0.0098*%
%ADD21R,0.0400X0.0500*%
%ADD22R,0.0500X0.0400*%
%ADD23R,0.1000X0.0600*%
%ADD24R,0.0500X0.0500*%
%ADD25C,0.0709*%
%ADD26C,0.0472*%
%ADD27C,0.0315*%
%ADD28C,0.0100*%
%ADD29C,0.0748*%
%ADD30R,0.0315X0.0866*%
%ADD31R,0.0866X0.0315*%
%ADD32C,0.0551*%
%ADD33R,0.1050X0.0650*%
*
G04 Plot Data ***
*
G54D21*
X0003110Y0011546D03*
X0003670D03*
X0002576Y0009541D03*
X0003136D03*
X0003669Y0010735D03*
X0003109D03*
X-0002755Y0014098D03*
X-0002195D03*
X0002639Y0012500D03*
X0003199D03*
X0002660Y0014725D03*
X0003220D03*
G54D22*
X0000343Y0012305D03*
Y0012865D03*
X-0001997Y0015714D03*
Y0015154D03*
X-0000200Y0015729D03*
Y0015169D03*
X0000595Y0015728D03*
Y0015168D03*
G54D24*
X0002383Y0015905D03*
X0003223D03*
G54D29*
X-0005320Y0013897D03*
X0003342Y0013895D03*
G54D32*
X-0004508Y0007973D03*
Y0008760D03*
X-0003721Y0007973D03*
Y0008760D03*
X-0002933Y0007973D03*
Y0008760D03*
X-0002146Y0007973D03*
Y0008760D03*
X-0001358Y0007973D03*
Y0008760D03*
X-0000571Y0007973D03*
Y0008760D03*
X0000216Y0007973D03*
Y0008760D03*
X0001004Y0007973D03*
Y0008760D03*
X0001791Y0007973D03*
Y0008760D03*
X0002579Y0007973D03*
Y0008760D03*
G54D33*
X0003123Y0017209D03*
X0001623D03*
X-0001038Y0012553D03*
X-0002538D03*
X-0001195Y0017482D03*
X-0002695D03*
M02*
