*
G04 Mass Parameters ***
*
G04 Image ***
*
%INC:\CAIN\ECBOT\V3\CAMERA.SST*%
%ICAS*%
%MOIN*%
%IPPOS*%
%ASAXBY*%
G74*%FSLAN2X34Y34*%
*
G04 Aperture Definitions ***
*
%ADD10R,0.0500X0.0500*%
%ADD11R,0.0500X0.0400*%
%ADD12C,0.0709*%
%ADD13R,0.0276X0.0787*%
%ADD14R,0.0787X0.0276*%
%ADD15C,0.0472*%
%ADD16C,0.0315*%
%ADD17C,0.0079*%
%ADD18C,0.0197*%
%ADD19C,0.0157*%
%ADD20C,0.0098*%
%ADD21R,0.0400X0.0500*%
%ADD22R,0.0500X0.0400*%
%ADD23R,0.1000X0.0600*%
%ADD24R,0.0500X0.0500*%
%ADD25C,0.0709*%
%ADD26C,0.0472*%
%ADD27C,0.0315*%
%ADD28C,0.0100*%
%ADD29C,0.0748*%
%ADD30R,0.0315X0.0866*%
%ADD31R,0.0866X0.0315*%
%ADD32C,0.0551*%
%ADD33R,0.1050X0.0650*%
%ADD34C,0.0060*%
%ADD35C,0.0118*%
*
G04 Plot Data ***
*
G54D17*
G01X-0000349Y0009357D02*
X-0000406Y0009414D01*
X-0000435Y0009471D01*
Y0009584D01*
X-0000406Y0009641D01*
X-0000349Y0009698D01*
X-0000293D01*
X-0000236Y0009641D01*
X-0000207Y0009584D01*
Y0009471D01*
X-0000236Y0009414D01*
X-0000293Y0009357D01*
X-0000349D01*
X-0000620D02*
X-0000734D01*
X-0000677D02*
Y0009698D01*
X-0000734Y0009641D01*
X-0000977Y0009698D02*
Y0009414D01*
X-0001005Y0009357D01*
X-0001176D01*
X-0001204Y0009414D01*
Y0009698D01*
X0003789Y0010022D02*
X0003678D01*
X0003733D02*
Y0010356D01*
X0003678Y0010300D01*
X0003437Y0010022D02*
X0003242D01*
Y0010356D01*
G54D18*
G01X0003332Y0014376D02*
X0002947D01*
Y0017837D01*
X-0001016D01*
X-0001024D02*
X-0004951Y0017836D01*
X-0004929Y0017858D01*
Y0014386D01*
X-0005321D01*
Y0013420D02*
X-0004928D01*
X-0004929Y0009952D01*
Y0009962D01*
X0002945D01*
Y0013411D01*
X0003311D01*
G01X0003344Y0014377D02*
G03X0003332Y0014376I0000000J0000483D01*
G01X0003827Y0013894D02*
G03X0003344Y0014377I0000483J0000000D01*
Y0013411D02*
G03X0003827Y0013894I0000000J0000483D01*
G01X0003332Y0013411D02*
G03X0003344Y0013411I0000012J0000483D01*
G01X-0005324Y0013420D02*
G03X-0005321Y0013420I0000000J0000483D01*
G01X-0005807Y0013903D02*
G03X-0005324Y0013420I0000483J0000000D01*
Y0014386D02*
G03X-0005807Y0013903I0000000J0000483D01*
G01X-0005321Y0014386D02*
G03X-0005324Y0014386I0000003J0000483D01*
G54D19*
G01X-0004906Y0009020D02*
X-0004907Y0009087D01*
X-0004908Y0009157D01*
X0002970D01*
Y0007496D01*
X-0004906D01*
Y0009020D01*
G54D34*
G01X0003610Y0016154D02*
X0003499D01*
X0003554D02*
Y0016487D01*
X0003499Y0016432D01*
X0003212Y0016321D02*
X0003296Y0016154D01*
X0003073Y0016321D02*
X0003240D01*
X0003296Y0016376D01*
Y0016432D01*
X0003240Y0016487D01*
X0003073D01*
Y0016154D01*
X0003928Y0011274D02*
X0003706D01*
X0003928Y0011496D01*
Y0011551D01*
X0003900Y0011607D01*
X0003733D01*
X0003706Y0011551D01*
X0003558Y0011274D02*
X0003447D01*
X0003502D02*
Y0011607D01*
X0003447Y0011551D01*
X0003160Y0011440D02*
X0003244Y0011274D01*
X0003021Y0011440D02*
X0003188D01*
X0003244Y0011496D01*
Y0011551D01*
X0003188Y0011607D01*
X0003021D01*
Y0011274D01*
X0003121Y0013093D02*
X0003921D01*
Y0011843D01*
X0003121D01*
Y0013093D01*
X0002915Y0016029D02*
X0003715D01*
Y0014779D01*
X0002915D01*
Y0016029D01*
X0003793Y0009164D02*
Y0009914D01*
X0002193D01*
Y0009164D01*
X0003793D01*
G54D35*
G01X0000901Y0013768D02*
X0000943Y0013852D01*
Y0013935D01*
X0000901Y0014018D01*
X0000651D01*
X0000609Y0013935D01*
Y0013852D01*
X0000651Y0013768D01*
X0000901D01*
X0000943Y0013685D01*
Y0013602D01*
X0000901Y0013518D01*
X0000651D01*
X0000609Y0013602D01*
Y0013685D01*
X0000651Y0013768D01*
X0000331Y0013518D02*
X-0000002D01*
X0000331Y0013852D01*
Y0013935D01*
X0000290Y0014018D01*
X0000040D01*
X-0000002Y0013935D01*
X-0000572Y0013768D02*
X-0000322D01*
X-0000280Y0013685D01*
Y0013602D01*
X-0000322Y0013518D01*
X-0000572D01*
X-0000613Y0013602D01*
Y0013685D01*
X-0000447Y0014018D01*
X-0000933Y0013768D02*
X-0001183D01*
X-0001225Y0013852D01*
Y0013935D01*
X-0001183Y0014018D01*
X-0000933D01*
X-0000891Y0013935D01*
Y0013852D01*
X-0001058Y0013518D01*
X-0001503Y0013602D02*
X-0001544Y0013518D01*
X-0001794D01*
X-0001836Y0013602D01*
Y0013935D01*
X-0001794Y0014018D01*
X-0001544D01*
X-0001503Y0013935D01*
X-0002114Y0013685D02*
X-0002447D01*
X-0002114Y0013518D02*
Y0013768D01*
X-0002239Y0014018D01*
X-0002322D01*
X-0002447Y0013768D01*
Y0013518D01*
X-0002725D02*
X-0002975Y0013768D01*
X-0002725Y0014018D01*
X-0003059D02*
Y0013518D01*
M02*
