*
G04 Mass Parameters ***
*
G04 Image ***
*
%INC:\CAIN\ECBOT\V3\CAMERA.SSB*%
%ICAS*%
%MOIN*%
%IPPOS*%
%ASAXBY*%
G74*%FSLAN2X34Y34*%
*
G04 Aperture Definitions ***
*
%ADD10R,0.0500X0.0500*%
%ADD11R,0.0500X0.0400*%
%ADD12C,0.0709*%
%ADD13R,0.0276X0.0787*%
%ADD14R,0.0787X0.0276*%
%ADD15C,0.0472*%
%ADD16C,0.0315*%
%ADD17C,0.0079*%
%ADD18C,0.0197*%
%ADD19C,0.0157*%
%ADD20C,0.0098*%
%ADD21R,0.0400X0.0500*%
%ADD22R,0.0500X0.0400*%
%ADD23R,0.1000X0.0600*%
%ADD24R,0.0500X0.0500*%
%ADD25C,0.0709*%
%ADD26C,0.0472*%
%ADD27C,0.0315*%
%ADD28C,0.0100*%
%ADD29C,0.0748*%
%ADD30R,0.0315X0.0866*%
%ADD31R,0.0866X0.0315*%
%ADD32C,0.0551*%
%ADD33R,0.1050X0.0650*%
%ADD34C,0.0060*%
%ADD35C,0.0118*%
*
G04 Plot Data ***
*
G54D17*
G01X-0000366Y0017574D02*
Y0017352D01*
X-0000478Y0017463D02*
X-0000255D01*
X-0004616Y0017420D02*
X-0004450D01*
X-0004422Y0017476D01*
Y0017531D01*
X-0004450Y0017587D01*
X-0004616D01*
X-0004644Y0017531D01*
Y0017476D01*
X-0004533Y0017253D01*
X-0004015Y0017309D02*
X-0004042Y0017253D01*
X-0004209D01*
X-0004237Y0017309D01*
Y0017420D01*
X-0004181Y0017476D01*
X-0004015D01*
Y0017587D01*
X-0004237D01*
X-0003830Y0017309D02*
X-0003802Y0017253D01*
X-0003635D01*
X-0003607Y0017309D01*
Y0017531D01*
X-0003635Y0017587D01*
X-0003802D01*
X-0003830Y0017531D01*
X0002518Y0016431D02*
X0002740D01*
X0002518Y0016653D01*
Y0016708D01*
X0002545Y0016764D01*
X0002712D01*
X0002740Y0016708D01*
X0002925Y0016431D02*
X0003119D01*
Y0016764D01*
G54D34*
G01X-0002321Y0016322D02*
X-0002098D01*
X-0002209Y0016545D01*
X-0002265D01*
Y0016211D01*
X-0001951Y0016267D02*
X-0001923Y0016211D01*
X-0001756D01*
X-0001728Y0016267D01*
Y0016489D01*
X-0001756Y0016545D01*
X-0001923D01*
X-0001951Y0016489D01*
X0002517Y0013080D02*
X0002489Y0013024D01*
X0002322D01*
X0002294Y0013080D01*
Y0013191D01*
X0002350Y0013246D01*
X0002517D01*
Y0013357D01*
X0002294D01*
X0002664Y0013080D02*
X0002692Y0013024D01*
X0002859D01*
X0002887Y0013080D01*
Y0013302D01*
X0002859Y0013357D01*
X0002692D01*
X0002664Y0013302D01*
X0000243Y0013503D02*
X0000076D01*
X0000049Y0013447D01*
Y0013391D01*
X0000076Y0013336D01*
X0000243D01*
X0000271Y0013391D01*
Y0013447D01*
X0000160Y0013669D01*
X0000419Y0013391D02*
X0000446Y0013336D01*
X0000613D01*
X0000641Y0013391D01*
Y0013614D01*
X0000613Y0013669D01*
X0000446D01*
X0000419Y0013614D01*
X0002041Y0010688D02*
X0002208D01*
X0002235Y0010744D01*
Y0010800D01*
X0002208Y0010855D01*
X0002041D01*
X0002013Y0010800D01*
Y0010744D01*
X0002124Y0010522D01*
X0002383Y0010577D02*
X0002411Y0010522D01*
X0002578D01*
X0002605Y0010577D01*
Y0010800D01*
X0002578Y0010855D01*
X0002411D01*
X0002383Y0010800D01*
X0001265Y0009382D02*
X0001320Y0009438D01*
X0001348Y0009493D01*
Y0009604D01*
X0001320Y0009660D01*
X0001265Y0009715D01*
X0001209D01*
X0001154Y0009660D01*
X0001126Y0009604D01*
Y0009493D01*
X0001154Y0009438D01*
X0001209Y0009382D01*
X0001265D01*
X0001496D02*
X0001607D01*
X0001551D02*
Y0009715D01*
X0001607Y0009660D01*
X0001810Y0009438D02*
X0001838Y0009382D01*
X0002005D01*
X0002032Y0009438D01*
Y0009660D01*
X0002005Y0009715D01*
X0001838D01*
X0001810Y0009660D01*
X0001937Y0011450D02*
X0001882Y0011394D01*
X0001771D01*
X0001715Y0011450D01*
Y0011505D01*
X0001826Y0011616D01*
X0001715Y0011727D01*
X0001937D01*
X0002085Y0011394D02*
X0002196D01*
X0002141D02*
Y0011727D01*
X0002196Y0011672D01*
X0002483Y0011561D02*
X0002399Y0011394D01*
X0002622Y0011561D02*
X0002455D01*
X0002399Y0011616D01*
Y0011672D01*
X0002455Y0011727D01*
X0002622D01*
Y0011394D01*
X-0001581Y0013913D02*
X-0001747Y0014246D01*
X-0001525D01*
X-0001377Y0013968D02*
X-0001350Y0013913D01*
X-0001183D01*
X-0001155Y0013968D01*
Y0014191D01*
X-0001183Y0014246D01*
X-0001350D01*
X-0001377Y0014191D01*
X0002122Y0014450D02*
Y0014561D01*
Y0014506D02*
X0001789D01*
X0001844Y0014561D01*
X0002067Y0014765D02*
X0002122Y0014792D01*
Y0014959D01*
X0002067Y0014987D01*
X0001844D01*
X0001789Y0014959D01*
Y0014792D01*
X0001844Y0014765D01*
X0003384Y0018025D02*
Y0017803D01*
X0003273Y0017914D02*
X0003495D01*
X0001906Y0017699D02*
X0002017D01*
X0001962D02*
Y0018033D01*
X0002017Y0017977D01*
X0002415Y0017866D02*
X0002248D01*
X0002221Y0017811D01*
Y0017755D01*
X0002248Y0017699D01*
X0002415D01*
X0002443Y0017755D01*
Y0017811D01*
X0002332Y0018033D01*
X0002591Y0017755D02*
X0002618Y0017699D01*
X0002785D01*
X0002813Y0017755D01*
Y0017977D01*
X0002785Y0018033D01*
X0002618D01*
X0002591Y0017977D01*
X-0000777Y0013370D02*
Y0013148D01*
X-0000888Y0013259D02*
X-0000666D01*
X-0002033Y0013030D02*
X-0001977Y0013086D01*
X-0001949Y0013141D01*
Y0013252D01*
X-0001977Y0013308D01*
X-0002033Y0013363D01*
X-0002088D01*
X-0002144Y0013308D01*
X-0002172Y0013252D01*
Y0013141D01*
X-0002144Y0013086D01*
X-0002088Y0013030D01*
X-0002033D01*
X-0001607Y0013197D02*
X-0001774D01*
X-0001802Y0013141D01*
Y0013086D01*
X-0001774Y0013030D01*
X-0001607D01*
X-0001579Y0013086D01*
Y0013141D01*
X-0001690Y0013363D01*
X-0001432Y0013086D02*
X-0001404Y0013030D01*
X-0001237D01*
X-0001209Y0013086D01*
Y0013308D01*
X-0001237Y0013363D01*
X-0001404D01*
X-0001432Y0013308D01*
X0000292Y0014360D02*
X0000514D01*
X0000292Y0014582D01*
Y0014637D01*
X0000320Y0014693D01*
X0000486D01*
X0000514Y0014637D01*
X0000662Y0014415D02*
X0000690Y0014360D01*
X0000856D01*
X0000884Y0014415D01*
Y0014637D01*
X0000856Y0014693D01*
X0000690D01*
X0000662Y0014637D01*
X-0000329Y0014437D02*
X-0000384Y0014382D01*
X-0000495D01*
X-0000551Y0014437D01*
Y0014493D01*
X-0000440Y0014604D01*
X-0000551Y0014715D01*
X-0000329D01*
X-0000181Y0014437D02*
X-0000153Y0014382D01*
X0000013D01*
X0000041Y0014437D01*
Y0014659D01*
X0000013Y0014715D01*
X-0000153D01*
X-0000181Y0014659D01*
X0002765Y0011946D02*
Y0011146D01*
X0004015D01*
Y0011946D01*
X0002765D01*
X-0003100Y0014498D02*
Y0013698D01*
X-0001850D01*
Y0014498D01*
X-0003100D01*
X0002315Y0015125D02*
Y0014325D01*
X0003565D01*
Y0015125D01*
X0002315D01*
X0000995Y0016073D02*
X0000195D01*
Y0014823D01*
X0000995D01*
Y0016073D01*
X0000200Y0016074D02*
X-0000600D01*
Y0014824D01*
X0000200D01*
Y0016074D01*
X-0001597Y0016059D02*
X-0002397D01*
Y0014809D01*
X-0001597D01*
Y0016059D01*
X0002294Y0012900D02*
Y0012100D01*
X0003544D01*
Y0012900D01*
X0002294D01*
X-0001095Y0017132D02*
X-0002795D01*
X-0002641Y0012898D02*
X-0000926D01*
X0003223Y0017559D02*
X0001523D01*
Y0016859D02*
X0003223D01*
X0003603Y0016280D02*
Y0015530D01*
X0002003D01*
Y0016280D01*
X0003603D01*
X-0002638Y0012203D02*
X-0000938D01*
X-0000057Y0011960D02*
X0000743D01*
Y0013210D01*
X-0000057D01*
Y0011960D01*
X0004014Y0010335D02*
Y0011135D01*
X0002764D01*
Y0010335D01*
X0004014D01*
X0002231Y0009941D02*
Y0009141D01*
X0003481D01*
Y0009941D01*
X0002231D01*
X-0002795Y0017832D02*
X-0001095D01*
M02*
