%
T1C0.0157F200S100
X-003484Y016699
X-003231Y014899
X-003215Y014099
X-003098Y015868
X-002952Y011765
X-002791Y016129
X-001991Y016173
X-001429Y016057
X-001193Y017173
X-001036Y011965
X-000432Y011965
X-000391Y016086
X000009Y017206
X000797Y011915
X000809Y016060
X001230Y012899
X001230Y013699
X001251Y012099
X001257Y015299
X001265Y014499
X002349Y013299
X002353Y012499
X002568Y014291
X003127Y017210
X003617Y013136
X003624Y017210
T2C0.0315F200S100
X-004508Y007973
X-004508Y008760
X-003721Y007973
X-003721Y008760
X-002933Y007973
X-002933Y008760
X-002146Y007973
X-002146Y008760
X-001358Y007973
X-001358Y008760
X-000571Y007973
X-000571Y008760
X000216Y007973
X000216Y008760
X001004Y007973
X001004Y008760
X001791Y007973
X001791Y008760
X002579Y007973
X002579Y008760
T3C0.0709F200S100
X-005320Y013897
X003342Y013895
M30
